<?xml version="1.0" encoding="utf-8" standalone="no"?>
<!DOCTYPE svg PUBLIC "-//W3C//DTD SVG 1.1//EN"
  "http://www.w3.org/Graphics/SVG/1.1/DTD/svg11.dtd">
<!-- Created with matplotlib (https://matplotlib.org/) -->
<svg height="288pt" version="1.1" viewBox="0 0 288 288" width="288pt" xmlns="http://www.w3.org/2000/svg" xmlns:xlink="http://www.w3.org/1999/xlink">
 <defs>
  <style type="text/css">
*{stroke-linecap:butt;stroke-linejoin:round;}
  </style>
 </defs>
 <g id="figure_1">
  <g id="patch_1">
   <path d="M 0 288 
L 288 288 
L 288 0 
L 0 0 
z
" style="fill:#ffffff;"/>
  </g>
  <g id="axes_1">
   <g id="patch_2">
    <path d="M 51.84 244.8 
L 276.48 244.8 
L 276.48 25.92 
L 51.84 25.92 
z
" style="fill:#ffffff;"/>
   </g>
   <g id="matplotlib.axis_1">
    <g id="xtick_1">
     <g id="line2d_1">
      <path clip-path="url(#pba148ef8be)" d="M 149.393986 244.8 
L 149.393986 25.92 
" style="fill:none;stroke:#cccccc;stroke-linecap:square;stroke-width:0.8;"/>
     </g>
     <g id="line2d_2">
      <defs>
       <path d="M 0 0 
L 0 3.5 
" id="mfef5a36c40" style="stroke:#000000;stroke-width:0.8;"/>
      </defs>
      <g>
       <use style="stroke:#000000;stroke-width:0.8;" x="149.393986" xlink:href="#mfef5a36c40" y="244.8"/>
      </g>
     </g>
     <g id="text_1">
      <!-- $\mathdefault{10^{0}}$ -->
      <defs>
       <path d="M 12.40625 8.296875 
L 28.515625 8.296875 
L 28.515625 63.921875 
L 10.984375 60.40625 
L 10.984375 69.390625 
L 28.421875 72.90625 
L 38.28125 72.90625 
L 38.28125 8.296875 
L 54.390625 8.296875 
L 54.390625 0 
L 12.40625 0 
z
" id="DejaVuSans-49"/>
       <path d="M 31.78125 66.40625 
Q 24.171875 66.40625 20.328125 58.90625 
Q 16.5 51.421875 16.5 36.375 
Q 16.5 21.390625 20.328125 13.890625 
Q 24.171875 6.390625 31.78125 6.390625 
Q 39.453125 6.390625 43.28125 13.890625 
Q 47.125 21.390625 47.125 36.375 
Q 47.125 51.421875 43.28125 58.90625 
Q 39.453125 66.40625 31.78125 66.40625 
z
M 31.78125 74.21875 
Q 44.046875 74.21875 50.515625 64.515625 
Q 56.984375 54.828125 56.984375 36.375 
Q 56.984375 17.96875 50.515625 8.265625 
Q 44.046875 -1.421875 31.78125 -1.421875 
Q 19.53125 -1.421875 13.0625 8.265625 
Q 6.59375 17.96875 6.59375 36.375 
Q 6.59375 54.828125 13.0625 64.515625 
Q 19.53125 74.21875 31.78125 74.21875 
z
" id="DejaVuSans-48"/>
      </defs>
      <g transform="translate(131.793986 266.996875)scale(0.2 -0.2)">
       <use transform="translate(0 0.765625)" xlink:href="#DejaVuSans-49"/>
       <use transform="translate(63.623047 0.765625)" xlink:href="#DejaVuSans-48"/>
       <use transform="translate(128.203125 39.046875)scale(0.7)" xlink:href="#DejaVuSans-48"/>
      </g>
     </g>
    </g>
    <g id="xtick_2">
     <g id="line2d_3">
      <path clip-path="url(#pba148ef8be)" d="M 248.769867 244.8 
L 248.769867 25.92 
" style="fill:none;stroke:#cccccc;stroke-linecap:square;stroke-width:0.8;"/>
     </g>
     <g id="line2d_4">
      <g>
       <use style="stroke:#000000;stroke-width:0.8;" x="248.769867" xlink:href="#mfef5a36c40" y="244.8"/>
      </g>
     </g>
     <g id="text_2">
      <!-- $\mathdefault{10^{1}}$ -->
      <g transform="translate(231.169867 266.996875)scale(0.2 -0.2)">
       <use transform="translate(0 0.684375)" xlink:href="#DejaVuSans-49"/>
       <use transform="translate(63.623047 0.684375)" xlink:href="#DejaVuSans-48"/>
       <use transform="translate(128.203125 38.965625)scale(0.7)" xlink:href="#DejaVuSans-49"/>
      </g>
     </g>
    </g>
    <g id="xtick_3">
     <g id="line2d_5">
      <defs>
       <path d="M 0 0 
L 0 2 
" id="mf2e67ef03b" style="stroke:#000000;stroke-width:0.6;"/>
      </defs>
      <g>
       <use style="stroke:#000000;stroke-width:0.6;" x="79.933226" xlink:href="#mf2e67ef03b" y="244.8"/>
      </g>
     </g>
    </g>
    <g id="xtick_4">
     <g id="line2d_6">
      <g>
       <use style="stroke:#000000;stroke-width:0.6;" x="97.43245" xlink:href="#mf2e67ef03b" y="244.8"/>
      </g>
     </g>
    </g>
    <g id="xtick_5">
     <g id="line2d_7">
      <g>
       <use style="stroke:#000000;stroke-width:0.6;" x="109.848347" xlink:href="#mf2e67ef03b" y="244.8"/>
      </g>
     </g>
    </g>
    <g id="xtick_6">
     <g id="line2d_8">
      <g>
       <use style="stroke:#000000;stroke-width:0.6;" x="119.478865" xlink:href="#mf2e67ef03b" y="244.8"/>
      </g>
     </g>
    </g>
    <g id="xtick_7">
     <g id="line2d_9">
      <g>
       <use style="stroke:#000000;stroke-width:0.6;" x="127.347571" xlink:href="#mf2e67ef03b" y="244.8"/>
      </g>
     </g>
    </g>
    <g id="xtick_8">
     <g id="line2d_10">
      <g>
       <use style="stroke:#000000;stroke-width:0.6;" x="134.000467" xlink:href="#mf2e67ef03b" y="244.8"/>
      </g>
     </g>
    </g>
    <g id="xtick_9">
     <g id="line2d_11">
      <g>
       <use style="stroke:#000000;stroke-width:0.6;" x="139.763468" xlink:href="#mf2e67ef03b" y="244.8"/>
      </g>
     </g>
    </g>
    <g id="xtick_10">
     <g id="line2d_12">
      <g>
       <use style="stroke:#000000;stroke-width:0.6;" x="144.846795" xlink:href="#mf2e67ef03b" y="244.8"/>
      </g>
     </g>
    </g>
    <g id="xtick_11">
     <g id="line2d_13">
      <g>
       <use style="stroke:#000000;stroke-width:0.6;" x="179.309107" xlink:href="#mf2e67ef03b" y="244.8"/>
      </g>
     </g>
    </g>
    <g id="xtick_12">
     <g id="line2d_14">
      <g>
       <use style="stroke:#000000;stroke-width:0.6;" x="196.808331" xlink:href="#mf2e67ef03b" y="244.8"/>
      </g>
     </g>
    </g>
    <g id="xtick_13">
     <g id="line2d_15">
      <g>
       <use style="stroke:#000000;stroke-width:0.6;" x="209.224228" xlink:href="#mf2e67ef03b" y="244.8"/>
      </g>
     </g>
    </g>
    <g id="xtick_14">
     <g id="line2d_16">
      <g>
       <use style="stroke:#000000;stroke-width:0.6;" x="218.854746" xlink:href="#mf2e67ef03b" y="244.8"/>
      </g>
     </g>
    </g>
    <g id="xtick_15">
     <g id="line2d_17">
      <g>
       <use style="stroke:#000000;stroke-width:0.6;" x="226.723452" xlink:href="#mf2e67ef03b" y="244.8"/>
      </g>
     </g>
    </g>
    <g id="xtick_16">
     <g id="line2d_18">
      <g>
       <use style="stroke:#000000;stroke-width:0.6;" x="233.376348" xlink:href="#mf2e67ef03b" y="244.8"/>
      </g>
     </g>
    </g>
    <g id="xtick_17">
     <g id="line2d_19">
      <g>
       <use style="stroke:#000000;stroke-width:0.6;" x="239.139349" xlink:href="#mf2e67ef03b" y="244.8"/>
      </g>
     </g>
    </g>
    <g id="xtick_18">
     <g id="line2d_20">
      <g>
       <use style="stroke:#000000;stroke-width:0.6;" x="244.222676" xlink:href="#mf2e67ef03b" y="244.8"/>
      </g>
     </g>
    </g>
    <g id="text_3">
     <!-- $Mean(SKG_{high})$ -->
     <defs>
      <path d="M 16.890625 72.90625 
L 31.6875 72.90625 
L 40.1875 23.78125 
L 68.40625 72.90625 
L 83.59375 72.90625 
L 69.390625 0 
L 59.8125 0 
L 72.21875 63.921875 
L 43.609375 14.015625 
L 33.984375 14.015625 
L 24.703125 64.109375 
L 12.3125 0 
L 2.6875 0 
z
" id="DejaVuSans-Oblique-77"/>
      <path d="M 48.09375 32.234375 
Q 48.25 33.015625 48.3125 33.84375 
Q 48.390625 34.671875 48.390625 35.5 
Q 48.390625 41.453125 44.890625 44.921875 
Q 41.40625 48.390625 35.40625 48.390625 
Q 28.71875 48.390625 23.578125 44.15625 
Q 18.453125 39.9375 15.828125 32.171875 
z
M 55.90625 25.203125 
L 14.109375 25.203125 
Q 13.8125 23.34375 13.71875 22.265625 
Q 13.625 21.1875 13.625 20.40625 
Q 13.625 13.625 17.796875 9.90625 
Q 21.96875 6.203125 29.59375 6.203125 
Q 35.453125 6.203125 40.671875 7.515625 
Q 45.90625 8.84375 50.390625 11.375 
L 48.6875 2.484375 
Q 43.84375 0.53125 38.6875 -0.4375 
Q 33.546875 -1.421875 28.21875 -1.421875 
Q 16.84375 -1.421875 10.71875 4.015625 
Q 4.59375 9.46875 4.59375 19.484375 
Q 4.59375 28.03125 7.640625 35.375 
Q 10.6875 42.71875 16.609375 48.484375 
Q 20.40625 52.09375 25.65625 54.046875 
Q 30.90625 56 36.8125 56 
Q 46.09375 56 51.578125 50.4375 
Q 57.078125 44.875 57.078125 35.5 
Q 57.078125 33.25 56.78125 30.6875 
Q 56.5 28.125 55.90625 25.203125 
z
" id="DejaVuSans-Oblique-101"/>
      <path d="M 53.71875 31.203125 
L 47.609375 0 
L 38.625 0 
L 40.28125 8.296875 
Q 36.328125 3.421875 31.265625 1 
Q 26.21875 -1.421875 20.015625 -1.421875 
Q 13.03125 -1.421875 8.5625 2.84375 
Q 4.109375 7.125 4.109375 13.8125 
Q 4.109375 23.390625 11.75 28.953125 
Q 19.390625 34.515625 32.8125 34.515625 
L 45.3125 34.515625 
L 45.796875 36.921875 
Q 45.90625 37.3125 45.953125 37.765625 
Q 46 38.234375 46 39.203125 
Q 46 43.5625 42.453125 45.96875 
Q 38.921875 48.390625 32.515625 48.390625 
Q 28.125 48.390625 23.5 47.265625 
Q 18.890625 46.140625 14.015625 43.890625 
L 15.578125 52.203125 
Q 20.65625 54.109375 25.515625 55.046875 
Q 30.375 56 34.90625 56 
Q 44.578125 56 49.625 51.796875 
Q 54.6875 47.609375 54.6875 39.59375 
Q 54.6875 37.984375 54.4375 35.8125 
Q 54.203125 33.640625 53.71875 31.203125 
z
M 44 27.484375 
L 35.015625 27.484375 
Q 23.96875 27.484375 18.671875 24.53125 
Q 13.375 21.578125 13.375 15.375 
Q 13.375 11.078125 16.078125 8.640625 
Q 18.796875 6.203125 23.578125 6.203125 
Q 30.90625 6.203125 36.375 11.453125 
Q 41.84375 16.703125 43.609375 25.484375 
z
" id="DejaVuSans-Oblique-97"/>
      <path d="M 55.71875 33.015625 
L 49.3125 0 
L 40.28125 0 
L 46.6875 32.671875 
Q 47.125 34.96875 47.359375 36.71875 
Q 47.609375 38.484375 47.609375 39.5 
Q 47.609375 43.609375 45.015625 45.890625 
Q 42.4375 48.1875 37.796875 48.1875 
Q 30.5625 48.1875 25.34375 43.375 
Q 20.125 38.578125 18.5 30.328125 
L 12.5 0 
L 3.515625 0 
L 14.109375 54.6875 
L 23.09375 54.6875 
L 21.296875 46.09375 
Q 25.046875 50.828125 30.3125 53.40625 
Q 35.59375 56 41.40625 56 
Q 48.640625 56 52.609375 52.09375 
Q 56.59375 48.1875 56.59375 41.109375 
Q 56.59375 39.359375 56.375 37.359375 
Q 56.15625 35.359375 55.71875 33.015625 
z
" id="DejaVuSans-Oblique-110"/>
      <path d="M 31 75.875 
Q 24.46875 64.65625 21.28125 53.65625 
Q 18.109375 42.671875 18.109375 31.390625 
Q 18.109375 20.125 21.3125 9.0625 
Q 24.515625 -2 31 -13.1875 
L 23.1875 -13.1875 
Q 15.875 -1.703125 12.234375 9.375 
Q 8.59375 20.453125 8.59375 31.390625 
Q 8.59375 42.28125 12.203125 53.3125 
Q 15.828125 64.359375 23.1875 75.875 
z
" id="DejaVuSans-40"/>
      <path d="M 60.296875 70.515625 
L 58.40625 60.890625 
Q 53.46875 63.53125 48.609375 64.875 
Q 43.75 66.21875 39.203125 66.21875 
Q 30.375 66.21875 25.140625 62.359375 
Q 19.921875 58.5 19.921875 52.09375 
Q 19.921875 48.578125 21.84375 46.703125 
Q 23.78125 44.828125 31.78125 42.671875 
L 37.703125 41.21875 
Q 47.703125 38.625 51.609375 34.640625 
Q 55.515625 30.671875 55.515625 23.484375 
Q 55.515625 12.453125 46.84375 5.515625 
Q 38.1875 -1.421875 24.03125 -1.421875 
Q 18.21875 -1.421875 12.359375 -0.265625 
Q 6.5 0.875 0.59375 3.21875 
L 2.59375 13.375 
Q 8.015625 10.015625 13.453125 8.296875 
Q 18.890625 6.59375 24.3125 6.59375 
Q 33.546875 6.59375 39.109375 10.6875 
Q 44.671875 14.796875 44.671875 21.390625 
Q 44.671875 25.78125 42.453125 28.046875 
Q 40.234375 30.328125 32.90625 32.171875 
L 27 33.6875 
Q 16.890625 36.328125 13.203125 39.765625 
Q 9.515625 43.21875 9.515625 49.421875 
Q 9.515625 60.296875 17.890625 67.25 
Q 26.265625 74.21875 39.703125 74.21875 
Q 44.921875 74.21875 50.046875 73.28125 
Q 55.171875 72.359375 60.296875 70.515625 
z
" id="DejaVuSans-Oblique-83"/>
      <path d="M 16.890625 72.90625 
L 26.8125 72.90625 
L 20.796875 42.1875 
L 59.078125 72.90625 
L 72.21875 72.90625 
L 28.90625 38.09375 
L 60.59375 0 
L 48.578125 0 
L 19.484375 35.5 
L 12.59375 0 
L 2.6875 0 
z
" id="DejaVuSans-Oblique-75"/>
      <path d="M 54.59375 10.890625 
L 58.40625 29.984375 
L 42.1875 29.984375 
L 43.703125 38.09375 
L 69.578125 38.09375 
L 63.28125 6 
Q 56.78125 2.4375 49.109375 0.5 
Q 41.453125 -1.421875 33.6875 -1.421875 
Q 19.96875 -1.421875 12.234375 6.1875 
Q 4.5 13.8125 4.5 27.390625 
Q 4.5 38.671875 9.203125 48.84375 
Q 13.921875 59.03125 22.21875 65.828125 
Q 27.4375 70.0625 33.640625 72.140625 
Q 39.84375 74.21875 47.40625 74.21875 
Q 54.25 74.21875 60.515625 72.484375 
Q 66.796875 70.75 72.515625 67.28125 
L 70.515625 56.78125 
Q 66.109375 61.375 60.203125 63.796875 
Q 54.296875 66.21875 47.609375 66.21875 
Q 39.84375 66.21875 33.9375 63.25 
Q 28.03125 60.296875 23.390625 54.109375 
Q 19.4375 48.828125 17.15625 41.671875 
Q 14.890625 34.515625 14.890625 27.09375 
Q 14.890625 16.890625 20.109375 11.734375 
Q 25.34375 6.59375 35.6875 6.59375 
Q 40.875 6.59375 45.703125 7.6875 
Q 50.53125 8.796875 54.59375 10.890625 
z
" id="DejaVuSans-Oblique-71"/>
      <path d="M 55.71875 33.015625 
L 49.3125 0 
L 40.28125 0 
L 46.6875 32.671875 
Q 47.125 34.96875 47.359375 36.71875 
Q 47.609375 38.484375 47.609375 39.5 
Q 47.609375 43.609375 45.015625 45.890625 
Q 42.4375 48.1875 37.796875 48.1875 
Q 30.5625 48.1875 25.265625 43.296875 
Q 19.96875 38.421875 18.40625 30.328125 
L 12.5 0 
L 3.515625 0 
L 18.3125 75.984375 
L 27.296875 75.984375 
L 21.484375 46.09375 
Q 24.90625 50.6875 30.21875 53.34375 
Q 35.546875 56 41.40625 56 
Q 48.640625 56 52.609375 52.09375 
Q 56.59375 48.1875 56.59375 41.109375 
Q 56.59375 39.359375 56.375 37.359375 
Q 56.15625 35.359375 55.71875 33.015625 
z
" id="DejaVuSans-Oblique-104"/>
      <path d="M 18.3125 75.984375 
L 27.296875 75.984375 
L 25.09375 64.59375 
L 16.109375 64.59375 
z
M 14.203125 54.6875 
L 23.1875 54.6875 
L 12.5 0 
L 3.515625 0 
z
" id="DejaVuSans-Oblique-105"/>
      <path d="M 59.625 54.6875 
L 50.296875 6.78125 
Q 47.609375 -7.125 40.015625 -13.953125 
Q 32.421875 -20.796875 19.578125 -20.796875 
Q 14.84375 -20.796875 10.78125 -20.09375 
Q 6.734375 -19.390625 3.21875 -17.921875 
L 4.890625 -9.1875 
Q 8.203125 -11.328125 11.90625 -12.34375 
Q 15.625 -13.375 19.828125 -13.375 
Q 28.375 -13.375 33.859375 -8.703125 
Q 39.359375 -4.046875 41.109375 4.6875 
L 41.890625 8.796875 
Q 38.140625 4.5 33.15625 2.25 
Q 28.171875 0 22.40625 0 
Q 14.109375 0 9.34375 5.484375 
Q 4.59375 10.984375 4.59375 20.609375 
Q 4.59375 28.171875 7.46875 35.421875 
Q 10.359375 42.671875 15.578125 48.296875 
Q 19.046875 52 23.65625 54 
Q 28.265625 56 33.296875 56 
Q 38.8125 56 42.90625 53.4375 
Q 47.015625 50.875 49.03125 46.1875 
L 50.59375 54.6875 
z
M 46.09375 34.625 
Q 46.09375 41.265625 42.96875 44.875 
Q 39.84375 48.484375 34.078125 48.484375 
Q 30.515625 48.484375 27.296875 47.0625 
Q 24.078125 45.65625 21.78125 43.109375 
Q 18.0625 38.921875 15.984375 33.234375 
Q 13.921875 27.546875 13.921875 21.484375 
Q 13.921875 14.75 17.0625 11.125 
Q 20.21875 7.515625 26.125 7.515625 
Q 34.671875 7.515625 40.375 15.25 
Q 46.09375 23 46.09375 34.625 
z
" id="DejaVuSans-Oblique-103"/>
      <path d="M 8.015625 75.875 
L 15.828125 75.875 
Q 23.140625 64.359375 26.78125 53.3125 
Q 30.421875 42.28125 30.421875 31.390625 
Q 30.421875 20.453125 26.78125 9.375 
Q 23.140625 -1.703125 15.828125 -13.1875 
L 8.015625 -13.1875 
Q 14.5 -2 17.703125 9.0625 
Q 20.90625 20.125 20.90625 31.390625 
Q 20.90625 42.671875 17.703125 53.65625 
Q 14.5 64.65625 8.015625 75.875 
z
" id="DejaVuSans-41"/>
     </defs>
     <g transform="translate(128.51 282.75625)scale(0.1 -0.1)">
      <use transform="translate(0 0.125)" xlink:href="#DejaVuSans-Oblique-77"/>
      <use transform="translate(86.279297 0.125)" xlink:href="#DejaVuSans-Oblique-101"/>
      <use transform="translate(147.802734 0.125)" xlink:href="#DejaVuSans-Oblique-97"/>
      <use transform="translate(209.082031 0.125)" xlink:href="#DejaVuSans-Oblique-110"/>
      <use transform="translate(272.460938 0.125)" xlink:href="#DejaVuSans-40"/>
      <use transform="translate(311.474609 0.125)" xlink:href="#DejaVuSans-Oblique-83"/>
      <use transform="translate(374.951172 0.125)" xlink:href="#DejaVuSans-Oblique-75"/>
      <use transform="translate(440.527344 0.125)" xlink:href="#DejaVuSans-Oblique-71"/>
      <use transform="translate(518.017578 -16.28125)scale(0.7)" xlink:href="#DejaVuSans-Oblique-104"/>
      <use transform="translate(562.382812 -16.28125)scale(0.7)" xlink:href="#DejaVuSans-Oblique-105"/>
      <use transform="translate(581.831055 -16.28125)scale(0.7)" xlink:href="#DejaVuSans-Oblique-103"/>
      <use transform="translate(626.264648 -16.28125)scale(0.7)" xlink:href="#DejaVuSans-Oblique-104"/>
      <use transform="translate(673.364258 0.125)" xlink:href="#DejaVuSans-41"/>
     </g>
    </g>
   </g>
   <g id="matplotlib.axis_2">
    <g id="ytick_1">
     <g id="line2d_21">
      <path clip-path="url(#pba148ef8be)" d="M 51.84 239.678377 
L 276.48 239.678377 
" style="fill:none;stroke:#cccccc;stroke-linecap:square;stroke-width:0.8;"/>
     </g>
     <g id="line2d_22">
      <defs>
       <path d="M 0 0 
L -3.5 0 
" id="m1f8a1603a3" style="stroke:#000000;stroke-width:0.8;"/>
      </defs>
      <g>
       <use style="stroke:#000000;stroke-width:0.8;" x="51.84" xlink:href="#m1f8a1603a3" y="239.678377"/>
      </g>
     </g>
     <g id="text_4">
      <!-- $\mathdefault{10^{-2}}$ -->
      <defs>
       <path d="M 10.59375 35.5 
L 73.1875 35.5 
L 73.1875 27.203125 
L 10.59375 27.203125 
z
" id="DejaVuSans-8722"/>
       <path d="M 19.1875 8.296875 
L 53.609375 8.296875 
L 53.609375 0 
L 7.328125 0 
L 7.328125 8.296875 
Q 12.9375 14.109375 22.625 23.890625 
Q 32.328125 33.6875 34.8125 36.53125 
Q 39.546875 41.84375 41.421875 45.53125 
Q 43.3125 49.21875 43.3125 52.78125 
Q 43.3125 58.59375 39.234375 62.25 
Q 35.15625 65.921875 28.609375 65.921875 
Q 23.96875 65.921875 18.8125 64.3125 
Q 13.671875 62.703125 7.8125 59.421875 
L 7.8125 69.390625 
Q 13.765625 71.78125 18.9375 73 
Q 24.125 74.21875 28.421875 74.21875 
Q 39.75 74.21875 46.484375 68.546875 
Q 53.21875 62.890625 53.21875 53.421875 
Q 53.21875 48.921875 51.53125 44.890625 
Q 49.859375 40.875 45.40625 35.40625 
Q 44.1875 33.984375 37.640625 27.21875 
Q 31.109375 20.453125 19.1875 8.296875 
z
" id="DejaVuSans-50"/>
      </defs>
      <g transform="translate(-2.16 247.276814)scale(0.2 -0.2)">
       <use transform="translate(0 0.765625)" xlink:href="#DejaVuSans-49"/>
       <use transform="translate(63.623047 0.765625)" xlink:href="#DejaVuSans-48"/>
       <use transform="translate(128.203125 39.046875)scale(0.7)" xlink:href="#DejaVuSans-8722"/>
       <use transform="translate(186.855469 39.046875)scale(0.7)" xlink:href="#DejaVuSans-50"/>
      </g>
     </g>
    </g>
    <g id="ytick_2">
     <g id="line2d_23">
      <path clip-path="url(#pba148ef8be)" d="M 51.84 175.508531 
L 276.48 175.508531 
" style="fill:none;stroke:#cccccc;stroke-linecap:square;stroke-width:0.8;"/>
     </g>
     <g id="line2d_24">
      <g>
       <use style="stroke:#000000;stroke-width:0.8;" x="51.84" xlink:href="#m1f8a1603a3" y="175.508531"/>
      </g>
     </g>
     <g id="text_5">
      <!-- $\mathdefault{10^{-1}}$ -->
      <g transform="translate(-2.16 183.106968)scale(0.2 -0.2)">
       <use transform="translate(0 0.684375)" xlink:href="#DejaVuSans-49"/>
       <use transform="translate(63.623047 0.684375)" xlink:href="#DejaVuSans-48"/>
       <use transform="translate(128.203125 38.965625)scale(0.7)" xlink:href="#DejaVuSans-8722"/>
       <use transform="translate(186.855469 38.965625)scale(0.7)" xlink:href="#DejaVuSans-49"/>
      </g>
     </g>
    </g>
    <g id="ytick_3">
     <g id="line2d_25">
      <path clip-path="url(#pba148ef8be)" d="M 51.84 111.338685 
L 276.48 111.338685 
" style="fill:none;stroke:#cccccc;stroke-linecap:square;stroke-width:0.8;"/>
     </g>
     <g id="line2d_26">
      <g>
       <use style="stroke:#000000;stroke-width:0.8;" x="51.84" xlink:href="#m1f8a1603a3" y="111.338685"/>
      </g>
     </g>
     <g id="text_6">
      <!-- $\mathdefault{10^{0}}$ -->
      <g transform="translate(9.64 118.937123)scale(0.2 -0.2)">
       <use transform="translate(0 0.765625)" xlink:href="#DejaVuSans-49"/>
       <use transform="translate(63.623047 0.765625)" xlink:href="#DejaVuSans-48"/>
       <use transform="translate(128.203125 39.046875)scale(0.7)" xlink:href="#DejaVuSans-48"/>
      </g>
     </g>
    </g>
    <g id="ytick_4">
     <g id="line2d_27">
      <path clip-path="url(#pba148ef8be)" d="M 51.84 47.16884 
L 276.48 47.16884 
" style="fill:none;stroke:#cccccc;stroke-linecap:square;stroke-width:0.8;"/>
     </g>
     <g id="line2d_28">
      <g>
       <use style="stroke:#000000;stroke-width:0.8;" x="51.84" xlink:href="#m1f8a1603a3" y="47.16884"/>
      </g>
     </g>
     <g id="text_7">
      <!-- $\mathdefault{10^{1}}$ -->
      <g transform="translate(9.64 54.767277)scale(0.2 -0.2)">
       <use transform="translate(0 0.684375)" xlink:href="#DejaVuSans-49"/>
       <use transform="translate(63.623047 0.684375)" xlink:href="#DejaVuSans-48"/>
       <use transform="translate(128.203125 38.965625)scale(0.7)" xlink:href="#DejaVuSans-49"/>
      </g>
     </g>
    </g>
    <g id="ytick_5">
     <g id="line2d_29">
      <defs>
       <path d="M 0 0 
L -2 0 
" id="m6ea6259726" style="stroke:#000000;stroke-width:0.6;"/>
      </defs>
      <g>
       <use style="stroke:#000000;stroke-width:0.6;" x="51.84" xlink:href="#m6ea6259726" y="242.614628"/>
      </g>
     </g>
    </g>
    <g id="ytick_6">
     <g id="line2d_30">
      <g>
       <use style="stroke:#000000;stroke-width:0.6;" x="51.84" xlink:href="#m6ea6259726" y="220.361328"/>
      </g>
     </g>
    </g>
    <g id="ytick_7">
     <g id="line2d_31">
      <g>
       <use style="stroke:#000000;stroke-width:0.6;" x="51.84" xlink:href="#m6ea6259726" y="209.061579"/>
      </g>
     </g>
    </g>
    <g id="ytick_8">
     <g id="line2d_32">
      <g>
       <use style="stroke:#000000;stroke-width:0.6;" x="51.84" xlink:href="#m6ea6259726" y="201.04428"/>
      </g>
     </g>
    </g>
    <g id="ytick_9">
     <g id="line2d_33">
      <g>
       <use style="stroke:#000000;stroke-width:0.6;" x="51.84" xlink:href="#m6ea6259726" y="194.825579"/>
      </g>
     </g>
    </g>
    <g id="ytick_10">
     <g id="line2d_34">
      <g>
       <use style="stroke:#000000;stroke-width:0.6;" x="51.84" xlink:href="#m6ea6259726" y="189.744531"/>
      </g>
     </g>
    </g>
    <g id="ytick_11">
     <g id="line2d_35">
      <g>
       <use style="stroke:#000000;stroke-width:0.6;" x="51.84" xlink:href="#m6ea6259726" y="185.448566"/>
      </g>
     </g>
    </g>
    <g id="ytick_12">
     <g id="line2d_36">
      <g>
       <use style="stroke:#000000;stroke-width:0.6;" x="51.84" xlink:href="#m6ea6259726" y="181.727232"/>
      </g>
     </g>
    </g>
    <g id="ytick_13">
     <g id="line2d_37">
      <g>
       <use style="stroke:#000000;stroke-width:0.6;" x="51.84" xlink:href="#m6ea6259726" y="178.444782"/>
      </g>
     </g>
    </g>
    <g id="ytick_14">
     <g id="line2d_38">
      <g>
       <use style="stroke:#000000;stroke-width:0.6;" x="51.84" xlink:href="#m6ea6259726" y="156.191483"/>
      </g>
     </g>
    </g>
    <g id="ytick_15">
     <g id="line2d_39">
      <g>
       <use style="stroke:#000000;stroke-width:0.6;" x="51.84" xlink:href="#m6ea6259726" y="144.891734"/>
      </g>
     </g>
    </g>
    <g id="ytick_16">
     <g id="line2d_40">
      <g>
       <use style="stroke:#000000;stroke-width:0.6;" x="51.84" xlink:href="#m6ea6259726" y="136.874434"/>
      </g>
     </g>
    </g>
    <g id="ytick_17">
     <g id="line2d_41">
      <g>
       <use style="stroke:#000000;stroke-width:0.6;" x="51.84" xlink:href="#m6ea6259726" y="130.655734"/>
      </g>
     </g>
    </g>
    <g id="ytick_18">
     <g id="line2d_42">
      <g>
       <use style="stroke:#000000;stroke-width:0.6;" x="51.84" xlink:href="#m6ea6259726" y="125.574685"/>
      </g>
     </g>
    </g>
    <g id="ytick_19">
     <g id="line2d_43">
      <g>
       <use style="stroke:#000000;stroke-width:0.6;" x="51.84" xlink:href="#m6ea6259726" y="121.27872"/>
      </g>
     </g>
    </g>
    <g id="ytick_20">
     <g id="line2d_44">
      <g>
       <use style="stroke:#000000;stroke-width:0.6;" x="51.84" xlink:href="#m6ea6259726" y="117.557386"/>
      </g>
     </g>
    </g>
    <g id="ytick_21">
     <g id="line2d_45">
      <g>
       <use style="stroke:#000000;stroke-width:0.6;" x="51.84" xlink:href="#m6ea6259726" y="114.274937"/>
      </g>
     </g>
    </g>
    <g id="ytick_22">
     <g id="line2d_46">
      <g>
       <use style="stroke:#000000;stroke-width:0.6;" x="51.84" xlink:href="#m6ea6259726" y="92.021637"/>
      </g>
     </g>
    </g>
    <g id="ytick_23">
     <g id="line2d_47">
      <g>
       <use style="stroke:#000000;stroke-width:0.6;" x="51.84" xlink:href="#m6ea6259726" y="80.721888"/>
      </g>
     </g>
    </g>
    <g id="ytick_24">
     <g id="line2d_48">
      <g>
       <use style="stroke:#000000;stroke-width:0.6;" x="51.84" xlink:href="#m6ea6259726" y="72.704589"/>
      </g>
     </g>
    </g>
    <g id="ytick_25">
     <g id="line2d_49">
      <g>
       <use style="stroke:#000000;stroke-width:0.6;" x="51.84" xlink:href="#m6ea6259726" y="66.485888"/>
      </g>
     </g>
    </g>
    <g id="ytick_26">
     <g id="line2d_50">
      <g>
       <use style="stroke:#000000;stroke-width:0.6;" x="51.84" xlink:href="#m6ea6259726" y="61.40484"/>
      </g>
     </g>
    </g>
    <g id="ytick_27">
     <g id="line2d_51">
      <g>
       <use style="stroke:#000000;stroke-width:0.6;" x="51.84" xlink:href="#m6ea6259726" y="57.108875"/>
      </g>
     </g>
    </g>
    <g id="ytick_28">
     <g id="line2d_52">
      <g>
       <use style="stroke:#000000;stroke-width:0.6;" x="51.84" xlink:href="#m6ea6259726" y="53.38754"/>
      </g>
     </g>
    </g>
    <g id="ytick_29">
     <g id="line2d_53">
      <g>
       <use style="stroke:#000000;stroke-width:0.6;" x="51.84" xlink:href="#m6ea6259726" y="50.105091"/>
      </g>
     </g>
    </g>
    <g id="ytick_30">
     <g id="line2d_54">
      <g>
       <use style="stroke:#000000;stroke-width:0.6;" x="51.84" xlink:href="#m6ea6259726" y="27.851791"/>
      </g>
     </g>
    </g>
    <g id="text_8">
     <!-- $Mean(WT_{high})$ -->
     <defs>
      <path d="M 9.625 72.90625 
L 19.1875 72.90625 
L 22.703125 10.890625 
L 50.203125 72.90625 
L 61.1875 72.90625 
L 64.796875 10.890625 
L 92 72.90625 
L 102 72.90625 
L 69.578125 0 
L 57.171875 0 
L 53.8125 60.796875 
L 26.515625 0 
L 14.109375 0 
z
" id="DejaVuSans-Oblique-87"/>
      <path d="M 5.90625 72.90625 
L 67.578125 72.90625 
L 66.015625 64.59375 
L 39.984375 64.59375 
L 27.484375 0 
L 17.578125 0 
L 30.078125 64.59375 
L 4.296875 64.59375 
z
" id="DejaVuSans-Oblique-84"/>
     </defs>
     <g transform="translate(-9.26 168.66)rotate(-90)scale(0.1 -0.1)">
      <use transform="translate(0 0.125)" xlink:href="#DejaVuSans-Oblique-77"/>
      <use transform="translate(86.279297 0.125)" xlink:href="#DejaVuSans-Oblique-101"/>
      <use transform="translate(147.802734 0.125)" xlink:href="#DejaVuSans-Oblique-97"/>
      <use transform="translate(209.082031 0.125)" xlink:href="#DejaVuSans-Oblique-110"/>
      <use transform="translate(272.460938 0.125)" xlink:href="#DejaVuSans-40"/>
      <use transform="translate(311.474609 0.125)" xlink:href="#DejaVuSans-Oblique-87"/>
      <use transform="translate(410.351562 0.125)" xlink:href="#DejaVuSans-Oblique-84"/>
      <use transform="translate(471.435547 -16.28125)scale(0.7)" xlink:href="#DejaVuSans-Oblique-104"/>
      <use transform="translate(515.800781 -16.28125)scale(0.7)" xlink:href="#DejaVuSans-Oblique-105"/>
      <use transform="translate(535.249023 -16.28125)scale(0.7)" xlink:href="#DejaVuSans-Oblique-103"/>
      <use transform="translate(579.682617 -16.28125)scale(0.7)" xlink:href="#DejaVuSans-Oblique-104"/>
      <use transform="translate(626.782227 0.125)" xlink:href="#DejaVuSans-41"/>
     </g>
    </g>
   </g>
   <g id="PathCollection_1">
    <path clip-path="url(#pba148ef8be)" d="M 233.494479 59.698262 
C 234.108323 59.698262 234.697109 59.454379 235.131163 59.020325 
C 235.565216 58.586272 235.809099 57.997486 235.809099 57.383641 
C 235.809099 56.769797 235.565216 56.181011 235.131163 55.746957 
C 234.697109 55.312904 234.108323 55.069021 233.494479 55.069021 
C 232.880634 55.069021 232.291849 55.312904 231.857795 55.746957 
C 231.423741 56.181011 231.179858 56.769797 231.179858 57.383641 
C 231.179858 57.997486 231.423741 58.586272 231.857795 59.020325 
C 232.291849 59.454379 232.880634 59.698262 233.494479 59.698262 
z
" style="stroke:#000000;"/>
    <path clip-path="url(#pba148ef8be)" d="M 131.321685 193.283882 
C 132.141638 193.283882 132.928119 192.958111 133.507913 192.378316 
C 134.087708 191.798522 134.413479 191.012041 134.413479 190.192088 
C 134.413479 189.372134 134.087708 188.585654 133.507913 188.005859 
C 132.928119 187.426065 132.141638 187.100294 131.321685 187.100294 
C 130.501731 187.100294 129.715251 187.426065 129.135456 188.005859 
C 128.555662 188.585654 128.229891 189.372134 128.229891 190.192088 
C 128.229891 191.012041 128.555662 191.798522 129.135456 192.378316 
C 129.715251 192.958111 130.501731 193.283882 131.321685 193.283882 
z
" style="fill:#1f77b4;stroke:#1f77b4;"/>
    <path clip-path="url(#pba148ef8be)" d="M 62.895985 231.573756 
C 63.544661 231.573756 64.166856 231.316034 64.625539 230.857351 
C 65.084222 230.398668 65.341944 229.776473 65.341944 229.127797 
C 65.341944 228.479121 65.084222 227.856926 64.625539 227.398243 
C 64.166856 226.93956 63.544661 226.681839 62.895985 226.681839 
C 62.24731 226.681839 61.625115 226.93956 61.166432 227.398243 
C 60.707748 227.856926 60.450027 228.479121 60.450027 229.127797 
C 60.450027 229.776473 60.707748 230.398668 61.166432 230.857351 
C 61.625115 231.316034 62.24731 231.573756 62.895985 231.573756 
z
" style="stroke:#000000;"/>
    <path clip-path="url(#pba148ef8be)" d="M 247.986783 45.87112 
C 248.35896 45.87112 248.715943 45.723252 248.979112 45.460084 
C 249.242281 45.196915 249.390148 44.839931 249.390148 44.467755 
C 249.390148 44.095578 249.242281 43.738594 248.979112 43.475426 
C 248.715943 43.212257 248.35896 43.064389 247.986783 43.064389 
C 247.614606 43.064389 247.257623 43.212257 246.994454 43.475426 
C 246.731285 43.738594 246.583418 44.095578 246.583418 44.467755 
C 246.583418 44.839931 246.731285 45.196915 246.994454 45.460084 
C 247.257623 45.723252 247.614606 45.87112 247.986783 45.87112 
z
" style="stroke:#000000;"/>
    <path clip-path="url(#pba148ef8be)" d="M 248.054094 56.023825 
C 248.749694 56.023825 249.416898 55.74746 249.908762 55.255597 
C 250.400625 54.763733 250.67699 54.096529 250.67699 53.400929 
C 250.67699 52.705329 250.400625 52.038125 249.908762 51.546262 
C 249.416898 51.054398 248.749694 50.778033 248.054094 50.778033 
C 247.358494 50.778033 246.69129 51.054398 246.199427 51.546262 
C 245.707563 52.038125 245.431198 52.705329 245.431198 53.400929 
C 245.431198 54.096529 245.707563 54.763733 246.199427 55.255597 
C 246.69129 55.74746 247.358494 56.023825 248.054094 56.023825 
z
" style="fill:#aec7e8;stroke:#aec7e8;"/>
    <path clip-path="url(#pba148ef8be)" d="M 211.103963 64.806515 
C 211.833146 64.806515 212.532563 64.516807 213.048173 64.001197 
C 213.563784 63.485586 213.853492 62.786169 213.853492 62.056986 
C 213.853492 61.327802 213.563784 60.628386 213.048173 60.112775 
C 212.532563 59.597165 211.833146 59.307457 211.103963 59.307457 
C 210.374779 59.307457 209.675363 59.597165 209.159752 60.112775 
C 208.644141 60.628386 208.354434 61.327802 208.354434 62.056986 
C 208.354434 62.786169 208.644141 63.485586 209.159752 64.001197 
C 209.675363 64.516807 210.374779 64.806515 211.103963 64.806515 
z
" style="fill:#aec7e8;stroke:#aec7e8;"/>
    <path clip-path="url(#pba148ef8be)" d="M 183.049646 85.906082 
C 183.388032 85.906082 183.712605 85.77164 183.95188 85.532364 
C 184.191156 85.293089 184.325598 84.968516 184.325598 84.63013 
C 184.325598 84.291743 184.191156 83.967171 183.95188 83.727895 
C 183.712605 83.48862 183.388032 83.354177 183.049646 83.354177 
C 182.711259 83.354177 182.386687 83.48862 182.147411 83.727895 
C 181.908136 83.967171 181.773694 84.291743 181.773694 84.63013 
C 181.773694 84.968516 181.908136 85.293089 182.147411 85.532364 
C 182.386687 85.77164 182.711259 85.906082 183.049646 85.906082 
z
" style="stroke:#000000;"/>
    <path clip-path="url(#pba148ef8be)" d="M 163.378451 159.672443 
C 164.110968 159.672443 164.813582 159.381411 165.33155 158.863443 
C 165.849518 158.345475 166.14055 157.642861 166.14055 156.910344 
C 166.14055 156.177826 165.849518 155.475212 165.33155 154.957244 
C 164.813582 154.439276 164.110968 154.148244 163.378451 154.148244 
C 162.645933 154.148244 161.943319 154.439276 161.425351 154.957244 
C 160.907383 155.475212 160.616351 156.177826 160.616351 156.910344 
C 160.616351 157.642861 160.907383 158.345475 161.425351 158.863443 
C 161.943319 159.381411 162.645933 159.672443 163.378451 159.672443 
z
" style="fill:#1f77b4;stroke:#1f77b4;"/>
    <path clip-path="url(#pba148ef8be)" d="M 201.417986 119.835638 
C 202.152538 119.835638 202.857104 119.543798 203.376511 119.024391 
C 203.895917 118.504984 204.187758 117.800419 204.187758 117.065867 
C 204.187758 116.331315 203.895917 115.626749 203.376511 115.107343 
C 202.857104 114.587936 202.152538 114.296095 201.417986 114.296095 
C 200.683434 114.296095 199.978869 114.587936 199.459462 115.107343 
C 198.940055 115.626749 198.648215 116.331315 198.648215 117.065867 
C 198.648215 117.800419 198.940055 118.504984 199.459462 119.024391 
C 199.978869 119.543798 200.683434 119.835638 201.417986 119.835638 
z
" style="fill:#1f77b4;stroke:#1f77b4;"/>
    <path clip-path="url(#pba148ef8be)" d="M 138.237107 112.815644 
C 138.781638 112.815644 139.30394 112.5993 139.688981 112.214258 
C 140.074023 111.829217 140.290367 111.306915 140.290367 110.762384 
C 140.290367 110.217853 140.074023 109.695551 139.688981 109.31051 
C 139.30394 108.925468 138.781638 108.709123 138.237107 108.709123 
C 137.692576 108.709123 137.170274 108.925468 136.785232 109.31051 
C 136.400191 109.695551 136.183846 110.217853 136.183846 110.762384 
C 136.183846 111.306915 136.400191 111.829217 136.785232 112.214258 
C 137.170274 112.5993 137.692576 112.815644 138.237107 112.815644 
z
" style="stroke:#000000;"/>
    <path clip-path="url(#pba148ef8be)" d="M 244.306306 52.006443 
C 245.038823 52.006443 245.741437 51.715411 246.259405 51.197443 
C 246.777373 50.679475 247.068406 49.976861 247.068406 49.244343 
C 247.068406 48.511826 246.777373 47.809212 246.259405 47.291244 
C 245.741437 46.773276 245.038823 46.482244 244.306306 46.482244 
C 243.573789 46.482244 242.871175 46.773276 242.353207 47.291244 
C 241.835239 47.809212 241.544206 48.511826 241.544206 49.244343 
C 241.544206 49.976861 241.835239 50.679475 242.353207 51.197443 
C 242.871175 51.715411 243.573789 52.006443 244.306306 52.006443 
z
" style="fill:#aec7e8;stroke:#aec7e8;"/>
    <path clip-path="url(#pba148ef8be)" d="M 227.94592 57.67176 
C 228.678438 57.67176 229.381052 57.380728 229.89902 56.86276 
C 230.416988 56.344792 230.70802 55.642178 230.70802 54.90966 
C 230.70802 54.177143 230.416988 53.474529 229.89902 52.956561 
C 229.381052 52.438593 228.678438 52.14756 227.94592 52.14756 
C 227.213403 52.14756 226.510789 52.438593 225.992821 52.956561 
C 225.474853 53.474529 225.183821 54.177143 225.183821 54.90966 
C 225.183821 55.642178 225.474853 56.344792 225.992821 56.86276 
C 226.510789 57.380728 227.213403 57.67176 227.94592 57.67176 
z
" style="fill:#1f77b4;stroke:#1f77b4;"/>
    <path clip-path="url(#pba148ef8be)" d="M 212.610682 60.399539 
C 213.345234 60.399539 214.049799 60.107698 214.569206 59.588291 
C 215.088613 59.068885 215.380453 58.364319 215.380453 57.629767 
C 215.380453 56.895215 215.088613 56.19065 214.569206 55.671243 
C 214.049799 55.151836 213.345234 54.859996 212.610682 54.859996 
C 211.87613 54.859996 211.171564 55.151836 210.652157 55.671243 
C 210.132751 56.19065 209.84091 56.895215 209.84091 57.629767 
C 209.84091 58.364319 210.132751 59.068885 210.652157 59.588291 
C 211.171564 60.107698 211.87613 60.399539 212.610682 60.399539 
z
" style="fill:#aec7e8;stroke:#aec7e8;"/>
    <path clip-path="url(#pba148ef8be)" d="M 69.694779 207.395295 
C 70.23931 207.395295 70.761612 207.17895 71.146654 206.793908 
C 71.531695 206.408867 71.74804 205.886565 71.74804 205.342034 
C 71.74804 204.797503 71.531695 204.275201 71.146654 203.89016 
C 70.761612 203.505118 70.23931 203.288774 69.694779 203.288774 
C 69.150248 203.288774 68.627947 203.505118 68.242905 203.89016 
C 67.857863 204.275201 67.641519 204.797503 67.641519 205.342034 
C 67.641519 205.886565 67.857863 206.408867 68.242905 206.793908 
C 68.627947 207.17895 69.150248 207.395295 69.694779 207.395295 
z
" style="stroke:#000000;"/>
    <path clip-path="url(#pba148ef8be)" d="M 113.968883 231.289901 
C 114.701401 231.289901 115.404014 230.998868 115.921983 230.4809 
C 116.439951 229.962932 116.730983 229.260318 116.730983 228.527801 
C 116.730983 227.795284 116.439951 227.09267 115.921983 226.574702 
C 115.404014 226.056734 114.701401 225.765701 113.968883 225.765701 
C 113.236366 225.765701 112.533752 226.056734 112.015784 226.574702 
C 111.497816 227.09267 111.206783 227.795284 111.206783 228.527801 
C 111.206783 229.260318 111.497816 229.962932 112.015784 230.4809 
C 112.533752 230.998868 113.236366 231.289901 113.968883 231.289901 
z
" style="fill:#1f77b4;stroke:#1f77b4;"/>
    <path clip-path="url(#pba148ef8be)" d="M 221.849741 78.363116 
C 222.584293 78.363116 223.288859 78.071275 223.808265 77.551869 
C 224.327672 77.032462 224.619513 76.327896 224.619513 75.593344 
C 224.619513 74.858792 224.327672 74.154227 223.808265 73.63482 
C 223.288859 73.115413 222.584293 72.823573 221.849741 72.823573 
C 221.115189 72.823573 220.410624 73.115413 219.891217 73.63482 
C 219.37181 74.154227 219.079969 74.858792 219.079969 75.593344 
C 219.079969 76.327896 219.37181 77.032462 219.891217 77.551869 
C 220.410624 78.071275 221.115189 78.363116 221.849741 78.363116 
z
" style="fill:#1f77b4;stroke:#1f77b4;"/>
    <path clip-path="url(#pba148ef8be)" d="M 220.416884 98.648693 
C 221.151436 98.648693 221.856001 98.356852 222.375408 97.837445 
C 222.894815 97.318039 223.186655 96.613473 223.186655 95.878921 
C 223.186655 95.144369 222.894815 94.439803 222.375408 93.920397 
C 221.856001 93.40099 221.151436 93.109149 220.416884 93.109149 
C 219.682332 93.109149 218.977766 93.40099 218.458359 93.920397 
C 217.938953 94.439803 217.647112 95.144369 217.647112 95.878921 
C 217.647112 96.613473 217.938953 97.318039 218.458359 97.837445 
C 218.977766 98.356852 219.682332 98.648693 220.416884 98.648693 
z
" style="fill:#1f77b4;stroke:#1f77b4;"/>
    <path clip-path="url(#pba148ef8be)" d="M 93.80188 143.332245 
C 94.415725 143.332245 95.004511 143.088362 95.438564 142.654308 
C 95.872618 142.220254 96.116501 141.631469 96.116501 141.017624 
C 96.116501 140.40378 95.872618 139.814994 95.438564 139.38094 
C 95.004511 138.946887 94.415725 138.703004 93.80188 138.703004 
C 93.188036 138.703004 92.59925 138.946887 92.165197 139.38094 
C 91.731143 139.814994 91.48726 140.40378 91.48726 141.017624 
C 91.48726 141.631469 91.731143 142.220254 92.165197 142.654308 
C 92.59925 143.088362 93.188036 143.332245 93.80188 143.332245 
z
" style="stroke:#000000;"/>
    <path clip-path="url(#pba148ef8be)" d="M 255.341544 47.729229 
C 256.076096 47.729229 256.780662 47.437388 257.300068 46.917982 
C 257.819475 46.398575 258.111316 45.694009 258.111316 44.959457 
C 258.111316 44.224905 257.819475 43.52034 257.300068 43.000933 
C 256.780662 42.481526 256.076096 42.189686 255.341544 42.189686 
C 254.606992 42.189686 253.902426 42.481526 253.38302 43.000933 
C 252.863613 43.52034 252.571772 44.224905 252.571772 44.959457 
C 252.571772 45.694009 252.863613 46.398575 253.38302 46.917982 
C 253.902426 47.437388 254.606992 47.729229 255.341544 47.729229 
z
" style="fill:#aec7e8;stroke:#aec7e8;"/>
    <path clip-path="url(#pba148ef8be)" d="M 229.826496 79.320539 
C 230.561048 79.320539 231.265613 79.028698 231.78502 78.509292 
C 232.304427 77.989885 232.596267 77.285319 232.596267 76.550767 
C 232.596267 75.816215 232.304427 75.11165 231.78502 74.592243 
C 231.265613 74.072836 230.561048 73.780996 229.826496 73.780996 
C 229.091944 73.780996 228.387378 74.072836 227.867971 74.592243 
C 227.348565 75.11165 227.056724 75.816215 227.056724 76.550767 
C 227.056724 77.285319 227.348565 77.989885 227.867971 78.509292 
C 228.387378 79.028698 229.091944 79.320539 229.826496 79.320539 
z
" style="fill:#aec7e8;stroke:#aec7e8;"/>
    <path clip-path="url(#pba148ef8be)" d="M 255.357167 43.270161 
C 256.089685 43.270161 256.792299 42.979129 257.310267 42.461161 
C 257.828235 41.943193 258.119267 41.240579 258.119267 40.508061 
C 258.119267 39.775544 257.828235 39.07293 257.310267 38.554962 
C 256.792299 38.036994 256.089685 37.745962 255.357167 37.745962 
C 254.62465 37.745962 253.922036 38.036994 253.404068 38.554962 
C 252.8861 39.07293 252.595067 39.775544 252.595067 40.508061 
C 252.595067 41.240579 252.8861 41.943193 253.404068 42.461161 
C 253.922036 42.979129 254.62465 43.270161 255.357167 43.270161 
z
" style="fill:#1f77b4;stroke:#1f77b4;"/>
   </g>
   <g id="PathCollection_2"/>
   <g id="PathCollection_3"/>
   <g id="PathCollection_4"/>
   <g id="PathCollection_5"/>
   <g id="PathCollection_6"/>
   <g id="PathCollection_7"/>
   <g id="line2d_55">
    <path clip-path="url(#pba148ef8be)" d="M -1 208.452379 
L 266.269091 35.869091 
" style="fill:none;stroke:#000000;stroke-dasharray:5.55,2.4;stroke-dashoffset:0;stroke-width:1.5;"/>
   </g>
   <g id="patch_3">
    <path d="M 51.84 244.8 
L 51.84 25.92 
" style="fill:none;stroke:#000000;stroke-linecap:square;stroke-linejoin:miter;stroke-width:0.8;"/>
   </g>
   <g id="patch_4">
    <path d="M 276.48 244.8 
L 276.48 25.92 
" style="fill:none;stroke:#000000;stroke-linecap:square;stroke-linejoin:miter;stroke-width:0.8;"/>
   </g>
   <g id="patch_5">
    <path d="M 51.84 244.8 
L 276.48 244.8 
" style="fill:none;stroke:#000000;stroke-linecap:square;stroke-linejoin:miter;stroke-width:0.8;"/>
   </g>
   <g id="patch_6">
    <path d="M 51.84 25.92 
L 276.48 25.92 
" style="fill:none;stroke:#000000;stroke-linecap:square;stroke-linejoin:miter;stroke-width:0.8;"/>
   </g>
   <g id="text_9">
    <!-- TRBV12-1 -->
    <defs>
     <path d="M 0.484375 72.90625 
L 67.671875 72.90625 
L 67.671875 58.6875 
L 43.5 58.6875 
L 43.5 0 
L 24.703125 0 
L 24.703125 58.6875 
L 0.484375 58.6875 
z
" id="DejaVuSans-Bold-84"/>
     <path d="M 35.890625 40.578125 
Q 41.796875 40.578125 44.359375 42.765625 
Q 46.921875 44.96875 46.921875 50 
Q 46.921875 54.984375 44.359375 57.125 
Q 41.796875 59.28125 35.890625 59.28125 
L 27.984375 59.28125 
L 27.984375 40.578125 
z
M 27.984375 27.59375 
L 27.984375 0 
L 9.1875 0 
L 9.1875 72.90625 
L 37.890625 72.90625 
Q 52.296875 72.90625 59 68.0625 
Q 65.71875 63.234375 65.71875 52.78125 
Q 65.71875 45.5625 62.21875 40.921875 
Q 58.734375 36.28125 51.703125 34.078125 
Q 55.5625 33.203125 58.609375 30.09375 
Q 61.671875 27 64.796875 20.703125 
L 75 0 
L 54.984375 0 
L 46.09375 18.109375 
Q 43.40625 23.578125 40.640625 25.578125 
Q 37.890625 27.59375 33.296875 27.59375 
z
" id="DejaVuSans-Bold-82"/>
     <path d="M 38.375 44.671875 
Q 42.828125 44.671875 45.109375 46.625 
Q 47.40625 48.578125 47.40625 52.390625 
Q 47.40625 56.15625 45.109375 58.125 
Q 42.828125 60.109375 38.375 60.109375 
L 27.984375 60.109375 
L 27.984375 44.671875 
z
M 39.015625 12.796875 
Q 44.671875 12.796875 47.53125 15.1875 
Q 50.390625 17.578125 50.390625 22.40625 
Q 50.390625 27.15625 47.5625 29.515625 
Q 44.734375 31.890625 39.015625 31.890625 
L 27.984375 31.890625 
L 27.984375 12.796875 
z
M 56.5 39.015625 
Q 62.546875 37.25 65.859375 32.515625 
Q 69.1875 27.78125 69.1875 20.90625 
Q 69.1875 10.359375 62.0625 5.171875 
Q 54.9375 0 40.375 0 
L 9.1875 0 
L 9.1875 72.90625 
L 37.40625 72.90625 
Q 52.59375 72.90625 59.40625 68.3125 
Q 66.21875 63.71875 66.21875 53.609375 
Q 66.21875 48.296875 63.71875 44.5625 
Q 61.234375 40.828125 56.5 39.015625 
z
" id="DejaVuSans-Bold-66"/>
     <path d="M 0.484375 72.90625 
L 19.390625 72.90625 
L 38.71875 19.09375 
L 58.015625 72.90625 
L 76.90625 72.90625 
L 49.90625 0 
L 27.484375 0 
z
" id="DejaVuSans-Bold-86"/>
     <path d="M 11.71875 12.984375 
L 28.328125 12.984375 
L 28.328125 60.109375 
L 11.28125 56.59375 
L 11.28125 69.390625 
L 28.21875 72.90625 
L 46.09375 72.90625 
L 46.09375 12.984375 
L 62.703125 12.984375 
L 62.703125 0 
L 11.71875 0 
z
" id="DejaVuSans-Bold-49"/>
     <path d="M 28.8125 13.8125 
L 60.890625 13.8125 
L 60.890625 0 
L 7.90625 0 
L 7.90625 13.8125 
L 34.515625 37.3125 
Q 38.09375 40.53125 39.796875 43.609375 
Q 41.5 46.6875 41.5 50 
Q 41.5 55.125 38.0625 58.25 
Q 34.625 61.375 28.90625 61.375 
Q 24.515625 61.375 19.28125 59.5 
Q 14.0625 57.625 8.109375 53.90625 
L 8.109375 69.921875 
Q 14.453125 72.015625 20.65625 73.109375 
Q 26.859375 74.21875 32.8125 74.21875 
Q 45.90625 74.21875 53.15625 68.453125 
Q 60.40625 62.703125 60.40625 52.390625 
Q 60.40625 46.4375 57.328125 41.28125 
Q 54.25 36.140625 44.390625 27.484375 
z
" id="DejaVuSans-Bold-50"/>
     <path d="M 5.421875 35.890625 
L 36.078125 35.890625 
L 36.078125 21.6875 
L 5.421875 21.6875 
z
" id="DejaVuSans-Bold-45"/>
    </defs>
    <g transform="translate(131.321685 190.192088)scale(0.06 -0.06)">
     <use xlink:href="#DejaVuSans-Bold-84"/>
     <use x="68.212891" xlink:href="#DejaVuSans-Bold-82"/>
     <use x="145.214844" xlink:href="#DejaVuSans-Bold-66"/>
     <use x="221.373047" xlink:href="#DejaVuSans-Bold-86"/>
     <use x="298.765625" xlink:href="#DejaVuSans-Bold-49"/>
     <use x="368.345703" xlink:href="#DejaVuSans-Bold-50"/>
     <use x="437.925781" xlink:href="#DejaVuSans-Bold-45"/>
     <use x="479.429688" xlink:href="#DejaVuSans-Bold-49"/>
    </g>
   </g>
   <g id="text_10">
    <!-- TRBV13-2 -->
    <defs>
     <path d="M -0.296875 72.90625 
L 61.375 72.90625 
L 61.375 64.59375 
L 35.5 64.59375 
L 35.5 0 
L 25.59375 0 
L 25.59375 64.59375 
L -0.296875 64.59375 
z
" id="DejaVuSans-84"/>
     <path d="M 44.390625 34.1875 
Q 47.5625 33.109375 50.5625 29.59375 
Q 53.5625 26.078125 56.59375 19.921875 
L 66.609375 0 
L 56 0 
L 46.6875 18.703125 
Q 43.0625 26.03125 39.671875 28.421875 
Q 36.28125 30.8125 30.421875 30.8125 
L 19.671875 30.8125 
L 19.671875 0 
L 9.8125 0 
L 9.8125 72.90625 
L 32.078125 72.90625 
Q 44.578125 72.90625 50.734375 67.671875 
Q 56.890625 62.453125 56.890625 51.90625 
Q 56.890625 45.015625 53.6875 40.46875 
Q 50.484375 35.9375 44.390625 34.1875 
z
M 19.671875 64.796875 
L 19.671875 38.921875 
L 32.078125 38.921875 
Q 39.203125 38.921875 42.84375 42.21875 
Q 46.484375 45.515625 46.484375 51.90625 
Q 46.484375 58.296875 42.84375 61.546875 
Q 39.203125 64.796875 32.078125 64.796875 
z
" id="DejaVuSans-82"/>
     <path d="M 19.671875 34.8125 
L 19.671875 8.109375 
L 35.5 8.109375 
Q 43.453125 8.109375 47.28125 11.40625 
Q 51.125 14.703125 51.125 21.484375 
Q 51.125 28.328125 47.28125 31.5625 
Q 43.453125 34.8125 35.5 34.8125 
z
M 19.671875 64.796875 
L 19.671875 42.828125 
L 34.28125 42.828125 
Q 41.5 42.828125 45.03125 45.53125 
Q 48.578125 48.25 48.578125 53.8125 
Q 48.578125 59.328125 45.03125 62.0625 
Q 41.5 64.796875 34.28125 64.796875 
z
M 9.8125 72.90625 
L 35.015625 72.90625 
Q 46.296875 72.90625 52.390625 68.21875 
Q 58.5 63.53125 58.5 54.890625 
Q 58.5 48.1875 55.375 44.234375 
Q 52.25 40.28125 46.1875 39.3125 
Q 53.46875 37.75 57.5 32.78125 
Q 61.53125 27.828125 61.53125 20.40625 
Q 61.53125 10.640625 54.890625 5.3125 
Q 48.25 0 35.984375 0 
L 9.8125 0 
z
" id="DejaVuSans-66"/>
     <path d="M 28.609375 0 
L 0.78125 72.90625 
L 11.078125 72.90625 
L 34.1875 11.53125 
L 57.328125 72.90625 
L 67.578125 72.90625 
L 39.796875 0 
z
" id="DejaVuSans-86"/>
     <path d="M 40.578125 39.3125 
Q 47.65625 37.796875 51.625 33 
Q 55.609375 28.21875 55.609375 21.1875 
Q 55.609375 10.40625 48.1875 4.484375 
Q 40.765625 -1.421875 27.09375 -1.421875 
Q 22.515625 -1.421875 17.65625 -0.515625 
Q 12.796875 0.390625 7.625 2.203125 
L 7.625 11.71875 
Q 11.71875 9.328125 16.59375 8.109375 
Q 21.484375 6.890625 26.8125 6.890625 
Q 36.078125 6.890625 40.9375 10.546875 
Q 45.796875 14.203125 45.796875 21.1875 
Q 45.796875 27.640625 41.28125 31.265625 
Q 36.765625 34.90625 28.71875 34.90625 
L 20.21875 34.90625 
L 20.21875 43.015625 
L 29.109375 43.015625 
Q 36.375 43.015625 40.234375 45.921875 
Q 44.09375 48.828125 44.09375 54.296875 
Q 44.09375 59.90625 40.109375 62.90625 
Q 36.140625 65.921875 28.71875 65.921875 
Q 24.65625 65.921875 20.015625 65.03125 
Q 15.375 64.15625 9.8125 62.3125 
L 9.8125 71.09375 
Q 15.4375 72.65625 20.34375 73.4375 
Q 25.25 74.21875 29.59375 74.21875 
Q 40.828125 74.21875 47.359375 69.109375 
Q 53.90625 64.015625 53.90625 55.328125 
Q 53.90625 49.265625 50.4375 45.09375 
Q 46.96875 40.921875 40.578125 39.3125 
z
" id="DejaVuSans-51"/>
     <path d="M 4.890625 31.390625 
L 31.203125 31.390625 
L 31.203125 23.390625 
L 4.890625 23.390625 
z
" id="DejaVuSans-45"/>
    </defs>
    <g transform="translate(248.054094 53.400929)scale(0.06 -0.06)">
     <use xlink:href="#DejaVuSans-84"/>
     <use x="61.083984" xlink:href="#DejaVuSans-82"/>
     <use x="130.566406" xlink:href="#DejaVuSans-66"/>
     <use x="199.123047" xlink:href="#DejaVuSans-86"/>
     <use x="267.53125" xlink:href="#DejaVuSans-49"/>
     <use x="331.154297" xlink:href="#DejaVuSans-51"/>
     <use x="394.777344" xlink:href="#DejaVuSans-45"/>
     <use x="430.861328" xlink:href="#DejaVuSans-50"/>
    </g>
   </g>
   <g id="text_11">
    <!-- TRBV13-3 -->
    <g transform="translate(211.103963 62.056986)scale(0.06 -0.06)">
     <use xlink:href="#DejaVuSans-84"/>
     <use x="61.083984" xlink:href="#DejaVuSans-82"/>
     <use x="130.566406" xlink:href="#DejaVuSans-66"/>
     <use x="199.123047" xlink:href="#DejaVuSans-86"/>
     <use x="267.53125" xlink:href="#DejaVuSans-49"/>
     <use x="331.154297" xlink:href="#DejaVuSans-51"/>
     <use x="394.777344" xlink:href="#DejaVuSans-45"/>
     <use x="430.861328" xlink:href="#DejaVuSans-51"/>
    </g>
   </g>
   <g id="text_12">
    <!-- TRBV15 -->
    <defs>
     <path d="M 10.59375 72.90625 
L 57.328125 72.90625 
L 57.328125 59.078125 
L 25.59375 59.078125 
L 25.59375 47.796875 
Q 27.734375 48.390625 29.90625 48.703125 
Q 32.078125 49.03125 34.421875 49.03125 
Q 47.75 49.03125 55.171875 42.359375 
Q 62.59375 35.6875 62.59375 23.78125 
Q 62.59375 11.96875 54.515625 5.265625 
Q 46.4375 -1.421875 32.078125 -1.421875 
Q 25.875 -1.421875 19.796875 -0.21875 
Q 13.71875 0.984375 7.71875 3.421875 
L 7.71875 18.21875 
Q 13.671875 14.796875 19.015625 13.078125 
Q 24.359375 11.375 29.109375 11.375 
Q 35.9375 11.375 39.859375 14.71875 
Q 43.796875 18.0625 43.796875 23.78125 
Q 43.796875 29.546875 39.859375 32.859375 
Q 35.9375 36.1875 29.109375 36.1875 
Q 25.046875 36.1875 20.453125 35.125 
Q 15.875 34.078125 10.59375 31.890625 
z
" id="DejaVuSans-Bold-53"/>
    </defs>
    <g transform="translate(163.378451 156.910344)scale(0.06 -0.06)">
     <use xlink:href="#DejaVuSans-Bold-84"/>
     <use x="68.212891" xlink:href="#DejaVuSans-Bold-82"/>
     <use x="145.214844" xlink:href="#DejaVuSans-Bold-66"/>
     <use x="221.373047" xlink:href="#DejaVuSans-Bold-86"/>
     <use x="298.765625" xlink:href="#DejaVuSans-Bold-49"/>
     <use x="368.345703" xlink:href="#DejaVuSans-Bold-53"/>
    </g>
   </g>
   <g id="text_13">
    <!-- TRBV16 -->
    <defs>
     <path d="M 36.1875 35.984375 
Q 31.25 35.984375 28.78125 32.78125 
Q 26.3125 29.59375 26.3125 23.1875 
Q 26.3125 16.796875 28.78125 13.59375 
Q 31.25 10.40625 36.1875 10.40625 
Q 41.15625 10.40625 43.625 13.59375 
Q 46.09375 16.796875 46.09375 23.1875 
Q 46.09375 29.59375 43.625 32.78125 
Q 41.15625 35.984375 36.1875 35.984375 
z
M 59.421875 71 
L 59.421875 57.515625 
Q 54.78125 59.71875 50.671875 60.765625 
Q 46.578125 61.8125 42.671875 61.8125 
Q 34.28125 61.8125 29.59375 57.140625 
Q 24.90625 52.484375 24.125 43.3125 
Q 27.34375 45.703125 31.09375 46.890625 
Q 34.859375 48.09375 39.3125 48.09375 
Q 50.484375 48.09375 57.34375 41.546875 
Q 64.203125 35.015625 64.203125 24.421875 
Q 64.203125 12.703125 56.53125 5.640625 
Q 48.875 -1.421875 35.984375 -1.421875 
Q 21.78125 -1.421875 13.984375 8.171875 
Q 6.203125 17.78125 6.203125 35.40625 
Q 6.203125 53.46875 15.3125 63.796875 
Q 24.421875 74.125 40.28125 74.125 
Q 45.3125 74.125 50.046875 73.34375 
Q 54.78125 72.5625 59.421875 71 
z
" id="DejaVuSans-Bold-54"/>
    </defs>
    <g transform="translate(201.417986 117.065867)scale(0.06 -0.06)">
     <use xlink:href="#DejaVuSans-Bold-84"/>
     <use x="68.212891" xlink:href="#DejaVuSans-Bold-82"/>
     <use x="145.214844" xlink:href="#DejaVuSans-Bold-66"/>
     <use x="221.373047" xlink:href="#DejaVuSans-Bold-86"/>
     <use x="298.765625" xlink:href="#DejaVuSans-Bold-49"/>
     <use x="368.345703" xlink:href="#DejaVuSans-Bold-54"/>
    </g>
   </g>
   <g id="text_14">
    <!-- TRBV19 -->
    <defs>
     <path d="M 10.984375 1.515625 
L 10.984375 10.5 
Q 14.703125 8.734375 18.5 7.8125 
Q 22.3125 6.890625 25.984375 6.890625 
Q 35.75 6.890625 40.890625 13.453125 
Q 46.046875 20.015625 46.78125 33.40625 
Q 43.953125 29.203125 39.59375 26.953125 
Q 35.25 24.703125 29.984375 24.703125 
Q 19.046875 24.703125 12.671875 31.3125 
Q 6.296875 37.9375 6.296875 49.421875 
Q 6.296875 60.640625 12.9375 67.421875 
Q 19.578125 74.21875 30.609375 74.21875 
Q 43.265625 74.21875 49.921875 64.515625 
Q 56.59375 54.828125 56.59375 36.375 
Q 56.59375 19.140625 48.40625 8.859375 
Q 40.234375 -1.421875 26.421875 -1.421875 
Q 22.703125 -1.421875 18.890625 -0.6875 
Q 15.09375 0.046875 10.984375 1.515625 
z
M 30.609375 32.421875 
Q 37.25 32.421875 41.125 36.953125 
Q 45.015625 41.5 45.015625 49.421875 
Q 45.015625 57.28125 41.125 61.84375 
Q 37.25 66.40625 30.609375 66.40625 
Q 23.96875 66.40625 20.09375 61.84375 
Q 16.21875 57.28125 16.21875 49.421875 
Q 16.21875 41.5 20.09375 36.953125 
Q 23.96875 32.421875 30.609375 32.421875 
z
" id="DejaVuSans-57"/>
    </defs>
    <g transform="translate(244.306306 49.244343)scale(0.06 -0.06)">
     <use xlink:href="#DejaVuSans-84"/>
     <use x="61.083984" xlink:href="#DejaVuSans-82"/>
     <use x="130.566406" xlink:href="#DejaVuSans-66"/>
     <use x="199.123047" xlink:href="#DejaVuSans-86"/>
     <use x="267.53125" xlink:href="#DejaVuSans-49"/>
     <use x="331.154297" xlink:href="#DejaVuSans-57"/>
    </g>
   </g>
   <g id="text_15">
    <!-- TRBV2 -->
    <g transform="translate(227.94592 54.90966)scale(0.06 -0.06)">
     <use xlink:href="#DejaVuSans-84"/>
     <use x="61.083984" xlink:href="#DejaVuSans-82"/>
     <use x="130.566406" xlink:href="#DejaVuSans-66"/>
     <use x="199.123047" xlink:href="#DejaVuSans-86"/>
     <use x="267.53125" xlink:href="#DejaVuSans-50"/>
    </g>
   </g>
   <g id="text_16">
    <!-- TRBV20 -->
    <g transform="translate(212.610682 57.629767)scale(0.06 -0.06)">
     <use xlink:href="#DejaVuSans-84"/>
     <use x="61.083984" xlink:href="#DejaVuSans-82"/>
     <use x="130.566406" xlink:href="#DejaVuSans-66"/>
     <use x="199.123047" xlink:href="#DejaVuSans-86"/>
     <use x="267.53125" xlink:href="#DejaVuSans-50"/>
     <use x="331.154297" xlink:href="#DejaVuSans-48"/>
    </g>
   </g>
   <g id="text_17">
    <!-- TRBV26 -->
    <g transform="translate(113.968883 228.527801)scale(0.06 -0.06)">
     <use xlink:href="#DejaVuSans-Bold-84"/>
     <use x="68.212891" xlink:href="#DejaVuSans-Bold-82"/>
     <use x="145.214844" xlink:href="#DejaVuSans-Bold-66"/>
     <use x="221.373047" xlink:href="#DejaVuSans-Bold-86"/>
     <use x="298.765625" xlink:href="#DejaVuSans-Bold-50"/>
     <use x="368.345703" xlink:href="#DejaVuSans-Bold-54"/>
    </g>
   </g>
   <g id="text_18">
    <!-- TRBV29 -->
    <defs>
     <path d="M 10.015625 1.609375 
L 10.015625 15.09375 
Q 14.5 12.984375 18.59375 11.9375 
Q 22.703125 10.890625 26.703125 10.890625 
Q 35.109375 10.890625 39.796875 15.546875 
Q 44.484375 20.21875 45.3125 29.390625 
Q 42 26.953125 38.234375 25.734375 
Q 34.46875 24.515625 30.078125 24.515625 
Q 18.890625 24.515625 12.03125 31.03125 
Q 5.171875 37.546875 5.171875 48.1875 
Q 5.171875 59.96875 12.8125 67.046875 
Q 20.453125 74.125 33.296875 74.125 
Q 47.5625 74.125 55.375 64.5 
Q 63.1875 54.890625 63.1875 37.3125 
Q 63.1875 19.234375 54.046875 8.90625 
Q 44.921875 -1.421875 29 -1.421875 
Q 23.875 -1.421875 19.1875 -0.65625 
Q 14.5 0.09375 10.015625 1.609375 
z
M 33.203125 36.71875 
Q 38.140625 36.71875 40.625 39.90625 
Q 43.109375 43.109375 43.109375 49.515625 
Q 43.109375 55.859375 40.625 59.078125 
Q 38.140625 62.3125 33.203125 62.3125 
Q 28.265625 62.3125 25.78125 59.078125 
Q 23.296875 55.859375 23.296875 49.515625 
Q 23.296875 43.109375 25.78125 39.90625 
Q 28.265625 36.71875 33.203125 36.71875 
z
" id="DejaVuSans-Bold-57"/>
    </defs>
    <g transform="translate(221.849741 75.593344)scale(0.06 -0.06)">
     <use xlink:href="#DejaVuSans-Bold-84"/>
     <use x="68.212891" xlink:href="#DejaVuSans-Bold-82"/>
     <use x="145.214844" xlink:href="#DejaVuSans-Bold-66"/>
     <use x="221.373047" xlink:href="#DejaVuSans-Bold-86"/>
     <use x="298.765625" xlink:href="#DejaVuSans-Bold-50"/>
     <use x="368.345703" xlink:href="#DejaVuSans-Bold-57"/>
    </g>
   </g>
   <g id="text_19">
    <!-- TRBV3 -->
    <defs>
     <path d="M 46.578125 39.3125 
Q 53.953125 37.40625 57.78125 32.6875 
Q 61.625 27.984375 61.625 20.703125 
Q 61.625 9.859375 53.3125 4.21875 
Q 45.015625 -1.421875 29.109375 -1.421875 
Q 23.484375 -1.421875 17.84375 -0.515625 
Q 12.203125 0.390625 6.6875 2.203125 
L 6.6875 16.703125 
Q 11.96875 14.0625 17.15625 12.71875 
Q 22.359375 11.375 27.390625 11.375 
Q 34.859375 11.375 38.84375 13.953125 
Q 42.828125 16.546875 42.828125 21.390625 
Q 42.828125 26.375 38.75 28.9375 
Q 34.671875 31.5 26.703125 31.5 
L 19.1875 31.5 
L 19.1875 43.609375 
L 27.09375 43.609375 
Q 34.1875 43.609375 37.640625 45.828125 
Q 41.109375 48.046875 41.109375 52.59375 
Q 41.109375 56.78125 37.734375 59.078125 
Q 34.375 61.375 28.21875 61.375 
Q 23.6875 61.375 19.046875 60.34375 
Q 14.40625 59.328125 9.8125 57.328125 
L 9.8125 71.09375 
Q 15.375 72.65625 20.84375 73.4375 
Q 26.3125 74.21875 31.59375 74.21875 
Q 45.796875 74.21875 52.84375 69.546875 
Q 59.90625 64.890625 59.90625 55.515625 
Q 59.90625 49.125 56.53125 45.046875 
Q 53.171875 40.96875 46.578125 39.3125 
z
" id="DejaVuSans-Bold-51"/>
    </defs>
    <g transform="translate(220.416884 95.878921)scale(0.06 -0.06)">
     <use xlink:href="#DejaVuSans-Bold-84"/>
     <use x="68.212891" xlink:href="#DejaVuSans-Bold-82"/>
     <use x="145.214844" xlink:href="#DejaVuSans-Bold-66"/>
     <use x="221.373047" xlink:href="#DejaVuSans-Bold-86"/>
     <use x="298.765625" xlink:href="#DejaVuSans-Bold-51"/>
    </g>
   </g>
   <g id="text_20">
    <!-- TRBV31 -->
    <g transform="translate(255.341544 44.959457)scale(0.06 -0.06)">
     <use xlink:href="#DejaVuSans-84"/>
     <use x="61.083984" xlink:href="#DejaVuSans-82"/>
     <use x="130.566406" xlink:href="#DejaVuSans-66"/>
     <use x="199.123047" xlink:href="#DejaVuSans-86"/>
     <use x="267.53125" xlink:href="#DejaVuSans-51"/>
     <use x="331.154297" xlink:href="#DejaVuSans-49"/>
    </g>
   </g>
   <g id="text_21">
    <!-- TRBV4 -->
    <defs>
     <path d="M 37.796875 64.3125 
L 12.890625 25.390625 
L 37.796875 25.390625 
z
M 35.203125 72.90625 
L 47.609375 72.90625 
L 47.609375 25.390625 
L 58.015625 25.390625 
L 58.015625 17.1875 
L 47.609375 17.1875 
L 47.609375 0 
L 37.796875 0 
L 37.796875 17.1875 
L 4.890625 17.1875 
L 4.890625 26.703125 
z
" id="DejaVuSans-52"/>
    </defs>
    <g transform="translate(229.826496 76.550767)scale(0.06 -0.06)">
     <use xlink:href="#DejaVuSans-84"/>
     <use x="61.083984" xlink:href="#DejaVuSans-82"/>
     <use x="130.566406" xlink:href="#DejaVuSans-66"/>
     <use x="199.123047" xlink:href="#DejaVuSans-86"/>
     <use x="267.53125" xlink:href="#DejaVuSans-52"/>
    </g>
   </g>
   <g id="text_22">
    <!-- TRBV5 -->
    <defs>
     <path d="M 10.796875 72.90625 
L 49.515625 72.90625 
L 49.515625 64.59375 
L 19.828125 64.59375 
L 19.828125 46.734375 
Q 21.96875 47.46875 24.109375 47.828125 
Q 26.265625 48.1875 28.421875 48.1875 
Q 40.625 48.1875 47.75 41.5 
Q 54.890625 34.8125 54.890625 23.390625 
Q 54.890625 11.625 47.5625 5.09375 
Q 40.234375 -1.421875 26.90625 -1.421875 
Q 22.3125 -1.421875 17.546875 -0.640625 
Q 12.796875 0.140625 7.71875 1.703125 
L 7.71875 11.625 
Q 12.109375 9.234375 16.796875 8.0625 
Q 21.484375 6.890625 26.703125 6.890625 
Q 35.15625 6.890625 40.078125 11.328125 
Q 45.015625 15.765625 45.015625 23.390625 
Q 45.015625 31 40.078125 35.4375 
Q 35.15625 39.890625 26.703125 39.890625 
Q 22.75 39.890625 18.8125 39.015625 
Q 14.890625 38.140625 10.796875 36.28125 
z
" id="DejaVuSans-53"/>
    </defs>
    <g transform="translate(255.357167 40.508061)scale(0.06 -0.06)">
     <use xlink:href="#DejaVuSans-84"/>
     <use x="61.083984" xlink:href="#DejaVuSans-82"/>
     <use x="130.566406" xlink:href="#DejaVuSans-66"/>
     <use x="199.123047" xlink:href="#DejaVuSans-86"/>
     <use x="267.53125" xlink:href="#DejaVuSans-53"/>
    </g>
   </g>
   <g id="legend_1">
    <g id="patch_7">
     <path d="M 56.04 57.75375 
L 124.8 57.75375 
Q 126 57.75375 126 56.55375 
L 126 30.12 
Q 126 28.92 124.8 28.92 
L 56.04 28.92 
Q 54.84 28.92 54.84 30.12 
L 54.84 56.55375 
Q 54.84 57.75375 56.04 57.75375 
z
" style="fill:#ffffff;opacity:0.8;stroke:#cccccc;stroke-linejoin:miter;"/>
    </g>
    <g id="PathCollection_8">
     <defs>
      <path d="M 0 3.622844 
C 0.96079 3.622844 1.882357 3.241118 2.561738 2.561738 
C 3.241118 1.882357 3.622844 0.96079 3.622844 0 
C 3.622844 -0.96079 3.241118 -1.882357 2.561738 -2.561738 
C 1.882357 -3.241118 0.96079 -3.622844 0 -3.622844 
C -0.96079 -3.622844 -1.882357 -3.241118 -2.561738 -2.561738 
C -3.241118 -1.882357 -3.622844 -0.96079 -3.622844 0 
C -3.622844 0.96079 -3.241118 1.882357 -2.561738 2.561738 
C -1.882357 3.241118 -0.96079 3.622844 0 3.622844 
z
" id="m61e418b736" style="stroke:#1f77b4;"/>
     </defs>
     <g>
      <use style="fill:#1f77b4;stroke:#1f77b4;" x="58.74" xlink:href="#m61e418b736" y="34.305"/>
     </g>
    </g>
    <g id="text_23">
     <!-- Enriched in $SKG_{high}$ -->
     <defs>
      <path d="M 9.8125 72.90625 
L 55.90625 72.90625 
L 55.90625 64.59375 
L 19.671875 64.59375 
L 19.671875 43.015625 
L 54.390625 43.015625 
L 54.390625 34.71875 
L 19.671875 34.71875 
L 19.671875 8.296875 
L 56.78125 8.296875 
L 56.78125 0 
L 9.8125 0 
z
" id="DejaVuSans-69"/>
      <path d="M 54.890625 33.015625 
L 54.890625 0 
L 45.90625 0 
L 45.90625 32.71875 
Q 45.90625 40.484375 42.875 44.328125 
Q 39.84375 48.1875 33.796875 48.1875 
Q 26.515625 48.1875 22.3125 43.546875 
Q 18.109375 38.921875 18.109375 30.90625 
L 18.109375 0 
L 9.078125 0 
L 9.078125 54.6875 
L 18.109375 54.6875 
L 18.109375 46.1875 
Q 21.34375 51.125 25.703125 53.5625 
Q 30.078125 56 35.796875 56 
Q 45.21875 56 50.046875 50.171875 
Q 54.890625 44.34375 54.890625 33.015625 
z
" id="DejaVuSans-110"/>
      <path d="M 41.109375 46.296875 
Q 39.59375 47.171875 37.8125 47.578125 
Q 36.03125 48 33.890625 48 
Q 26.265625 48 22.1875 43.046875 
Q 18.109375 38.09375 18.109375 28.8125 
L 18.109375 0 
L 9.078125 0 
L 9.078125 54.6875 
L 18.109375 54.6875 
L 18.109375 46.1875 
Q 20.953125 51.171875 25.484375 53.578125 
Q 30.03125 56 36.53125 56 
Q 37.453125 56 38.578125 55.875 
Q 39.703125 55.765625 41.0625 55.515625 
z
" id="DejaVuSans-114"/>
      <path d="M 9.421875 54.6875 
L 18.40625 54.6875 
L 18.40625 0 
L 9.421875 0 
z
M 9.421875 75.984375 
L 18.40625 75.984375 
L 18.40625 64.59375 
L 9.421875 64.59375 
z
" id="DejaVuSans-105"/>
      <path d="M 48.78125 52.59375 
L 48.78125 44.1875 
Q 44.96875 46.296875 41.140625 47.34375 
Q 37.3125 48.390625 33.40625 48.390625 
Q 24.65625 48.390625 19.8125 42.84375 
Q 14.984375 37.3125 14.984375 27.296875 
Q 14.984375 17.28125 19.8125 11.734375 
Q 24.65625 6.203125 33.40625 6.203125 
Q 37.3125 6.203125 41.140625 7.25 
Q 44.96875 8.296875 48.78125 10.40625 
L 48.78125 2.09375 
Q 45.015625 0.34375 40.984375 -0.53125 
Q 36.96875 -1.421875 32.421875 -1.421875 
Q 20.0625 -1.421875 12.78125 6.34375 
Q 5.515625 14.109375 5.515625 27.296875 
Q 5.515625 40.671875 12.859375 48.328125 
Q 20.21875 56 33.015625 56 
Q 37.15625 56 41.109375 55.140625 
Q 45.0625 54.296875 48.78125 52.59375 
z
" id="DejaVuSans-99"/>
      <path d="M 54.890625 33.015625 
L 54.890625 0 
L 45.90625 0 
L 45.90625 32.71875 
Q 45.90625 40.484375 42.875 44.328125 
Q 39.84375 48.1875 33.796875 48.1875 
Q 26.515625 48.1875 22.3125 43.546875 
Q 18.109375 38.921875 18.109375 30.90625 
L 18.109375 0 
L 9.078125 0 
L 9.078125 75.984375 
L 18.109375 75.984375 
L 18.109375 46.1875 
Q 21.34375 51.125 25.703125 53.5625 
Q 30.078125 56 35.796875 56 
Q 45.21875 56 50.046875 50.171875 
Q 54.890625 44.34375 54.890625 33.015625 
z
" id="DejaVuSans-104"/>
      <path d="M 56.203125 29.59375 
L 56.203125 25.203125 
L 14.890625 25.203125 
Q 15.484375 15.921875 20.484375 11.0625 
Q 25.484375 6.203125 34.421875 6.203125 
Q 39.59375 6.203125 44.453125 7.46875 
Q 49.3125 8.734375 54.109375 11.28125 
L 54.109375 2.78125 
Q 49.265625 0.734375 44.1875 -0.34375 
Q 39.109375 -1.421875 33.890625 -1.421875 
Q 20.796875 -1.421875 13.15625 6.1875 
Q 5.515625 13.8125 5.515625 26.8125 
Q 5.515625 40.234375 12.765625 48.109375 
Q 20.015625 56 32.328125 56 
Q 43.359375 56 49.78125 48.890625 
Q 56.203125 41.796875 56.203125 29.59375 
z
M 47.21875 32.234375 
Q 47.125 39.59375 43.09375 43.984375 
Q 39.0625 48.390625 32.421875 48.390625 
Q 24.90625 48.390625 20.390625 44.140625 
Q 15.875 39.890625 15.1875 32.171875 
z
" id="DejaVuSans-101"/>
      <path d="M 45.40625 46.390625 
L 45.40625 75.984375 
L 54.390625 75.984375 
L 54.390625 0 
L 45.40625 0 
L 45.40625 8.203125 
Q 42.578125 3.328125 38.25 0.953125 
Q 33.9375 -1.421875 27.875 -1.421875 
Q 17.96875 -1.421875 11.734375 6.484375 
Q 5.515625 14.40625 5.515625 27.296875 
Q 5.515625 40.1875 11.734375 48.09375 
Q 17.96875 56 27.875 56 
Q 33.9375 56 38.25 53.625 
Q 42.578125 51.265625 45.40625 46.390625 
z
M 14.796875 27.296875 
Q 14.796875 17.390625 18.875 11.75 
Q 22.953125 6.109375 30.078125 6.109375 
Q 37.203125 6.109375 41.296875 11.75 
Q 45.40625 17.390625 45.40625 27.296875 
Q 45.40625 37.203125 41.296875 42.84375 
Q 37.203125 48.484375 30.078125 48.484375 
Q 22.953125 48.484375 18.875 42.84375 
Q 14.796875 37.203125 14.796875 27.296875 
z
" id="DejaVuSans-100"/>
      <path id="DejaVuSans-32"/>
     </defs>
     <g transform="translate(66.24 35.88)scale(0.06 -0.06)">
      <use transform="translate(0 0.015625)" xlink:href="#DejaVuSans-69"/>
      <use transform="translate(63.183594 0.015625)" xlink:href="#DejaVuSans-110"/>
      <use transform="translate(126.5625 0.015625)" xlink:href="#DejaVuSans-114"/>
      <use transform="translate(167.675781 0.015625)" xlink:href="#DejaVuSans-105"/>
      <use transform="translate(195.458984 0.015625)" xlink:href="#DejaVuSans-99"/>
      <use transform="translate(250.439453 0.015625)" xlink:href="#DejaVuSans-104"/>
      <use transform="translate(313.818359 0.015625)" xlink:href="#DejaVuSans-101"/>
      <use transform="translate(375.341797 0.015625)" xlink:href="#DejaVuSans-100"/>
      <use transform="translate(438.818359 0.015625)" xlink:href="#DejaVuSans-32"/>
      <use transform="translate(470.605469 0.015625)" xlink:href="#DejaVuSans-105"/>
      <use transform="translate(498.388672 0.015625)" xlink:href="#DejaVuSans-110"/>
      <use transform="translate(561.767578 0.015625)" xlink:href="#DejaVuSans-32"/>
      <use transform="translate(593.554688 0.015625)" xlink:href="#DejaVuSans-Oblique-83"/>
      <use transform="translate(657.03125 0.015625)" xlink:href="#DejaVuSans-Oblique-75"/>
      <use transform="translate(722.607422 0.015625)" xlink:href="#DejaVuSans-Oblique-71"/>
      <use transform="translate(800.097656 -16.390625)scale(0.7)" xlink:href="#DejaVuSans-Oblique-104"/>
      <use transform="translate(844.462891 -16.390625)scale(0.7)" xlink:href="#DejaVuSans-Oblique-105"/>
      <use transform="translate(863.911133 -16.390625)scale(0.7)" xlink:href="#DejaVuSans-Oblique-103"/>
      <use transform="translate(908.344727 -16.390625)scale(0.7)" xlink:href="#DejaVuSans-Oblique-104"/>
     </g>
    </g>
    <g id="PathCollection_9">
     <defs>
      <path d="M 0 3.622844 
C 0.96079 3.622844 1.882357 3.241118 2.561738 2.561738 
C 3.241118 1.882357 3.622844 0.96079 3.622844 0 
C 3.622844 -0.96079 3.241118 -1.882357 2.561738 -2.561738 
C 1.882357 -3.241118 0.96079 -3.622844 0 -3.622844 
C -0.96079 -3.622844 -1.882357 -3.241118 -2.561738 -2.561738 
C -3.241118 -1.882357 -3.622844 -0.96079 -3.622844 0 
C -3.622844 0.96079 -3.241118 1.882357 -2.561738 2.561738 
C -1.882357 3.241118 -0.96079 3.622844 0 3.622844 
z
" id="mf8e14f3b00" style="stroke:#aec7e8;"/>
     </defs>
     <g>
      <use style="fill:#aec7e8;stroke:#aec7e8;" x="58.74" xlink:href="#mf8e14f3b00" y="43.724063"/>
     </g>
    </g>
    <g id="text_24">
     <!-- Enriched in $SKG_{low}$ -->
     <defs>
      <path d="M 18.3125 75.984375 
L 27.296875 75.984375 
L 12.5 0 
L 3.515625 0 
z
" id="DejaVuSans-Oblique-108"/>
      <path d="M 25.390625 -1.421875 
Q 15.765625 -1.421875 10.171875 4.515625 
Q 4.59375 10.453125 4.59375 20.703125 
Q 4.59375 26.65625 6.515625 32.828125 
Q 8.453125 39.015625 11.53125 43.21875 
Q 16.359375 49.75 22.3125 52.875 
Q 28.265625 56 35.796875 56 
Q 45.125 56 50.859375 50.1875 
Q 56.59375 44.390625 56.59375 35.015625 
Q 56.59375 28.515625 54.6875 22.0625 
Q 52.78125 15.625 49.703125 11.375 
Q 44.921875 4.828125 38.96875 1.703125 
Q 33.015625 -1.421875 25.390625 -1.421875 
z
M 13.921875 21 
Q 13.921875 13.578125 17.015625 9.890625 
Q 20.125 6.203125 26.421875 6.203125 
Q 35.453125 6.203125 41.375 14.078125 
Q 47.3125 21.96875 47.3125 34.078125 
Q 47.3125 41.15625 44.140625 44.765625 
Q 40.96875 48.390625 34.8125 48.390625 
Q 29.734375 48.390625 25.78125 46.015625 
Q 21.828125 43.65625 18.703125 38.8125 
Q 16.40625 35.203125 15.15625 30.5625 
Q 13.921875 25.921875 13.921875 21 
z
" id="DejaVuSans-Oblique-111"/>
      <path d="M 8.5 54.6875 
L 17.390625 54.6875 
L 19.671875 10.6875 
L 40.09375 54.6875 
L 50.484375 54.6875 
L 53.515625 10.6875 
L 72.90625 54.6875 
L 81.890625 54.6875 
L 56.890625 0 
L 46.390625 0 
L 43.703125 45.3125 
L 22.796875 0 
L 12.203125 0 
z
" id="DejaVuSans-Oblique-119"/>
     </defs>
     <g transform="translate(66.24 45.299063)scale(0.06 -0.06)">
      <use transform="translate(0 0.015625)" xlink:href="#DejaVuSans-69"/>
      <use transform="translate(63.183594 0.015625)" xlink:href="#DejaVuSans-110"/>
      <use transform="translate(126.5625 0.015625)" xlink:href="#DejaVuSans-114"/>
      <use transform="translate(167.675781 0.015625)" xlink:href="#DejaVuSans-105"/>
      <use transform="translate(195.458984 0.015625)" xlink:href="#DejaVuSans-99"/>
      <use transform="translate(250.439453 0.015625)" xlink:href="#DejaVuSans-104"/>
      <use transform="translate(313.818359 0.015625)" xlink:href="#DejaVuSans-101"/>
      <use transform="translate(375.341797 0.015625)" xlink:href="#DejaVuSans-100"/>
      <use transform="translate(438.818359 0.015625)" xlink:href="#DejaVuSans-32"/>
      <use transform="translate(470.605469 0.015625)" xlink:href="#DejaVuSans-105"/>
      <use transform="translate(498.388672 0.015625)" xlink:href="#DejaVuSans-110"/>
      <use transform="translate(561.767578 0.015625)" xlink:href="#DejaVuSans-32"/>
      <use transform="translate(593.554688 0.015625)" xlink:href="#DejaVuSans-Oblique-83"/>
      <use transform="translate(657.03125 0.015625)" xlink:href="#DejaVuSans-Oblique-75"/>
      <use transform="translate(722.607422 0.015625)" xlink:href="#DejaVuSans-Oblique-71"/>
      <use transform="translate(800.097656 -16.390625)scale(0.7)" xlink:href="#DejaVuSans-Oblique-108"/>
      <use transform="translate(819.545898 -16.390625)scale(0.7)" xlink:href="#DejaVuSans-Oblique-111"/>
      <use transform="translate(862.373047 -16.390625)scale(0.7)" xlink:href="#DejaVuSans-Oblique-119"/>
     </g>
    </g>
    <g id="PathCollection_10">
     <defs>
      <path d="M 0 3.622844 
C 0.96079 3.622844 1.882357 3.241118 2.561738 2.561738 
C 3.241118 1.882357 3.622844 0.96079 3.622844 0 
C 3.622844 -0.96079 3.241118 -1.882357 2.561738 -2.561738 
C 1.882357 -3.241118 0.96079 -3.622844 0 -3.622844 
C -0.96079 -3.622844 -1.882357 -3.241118 -2.561738 -2.561738 
C -3.241118 -1.882357 -3.622844 -0.96079 -3.622844 0 
C -3.622844 0.96079 -3.241118 1.882357 -2.561738 2.561738 
C -1.882357 3.241118 -0.96079 3.622844 0 3.622844 
z
" id="m3ae0140610" style="stroke:#000000;"/>
     </defs>
     <g>
      <use style="stroke:#000000;" x="58.74" xlink:href="#m3ae0140610" y="52.530938"/>
     </g>
    </g>
    <g id="text_25">
     <!-- Not significant -->
     <defs>
      <path d="M 9.8125 72.90625 
L 23.09375 72.90625 
L 55.421875 11.921875 
L 55.421875 72.90625 
L 64.984375 72.90625 
L 64.984375 0 
L 51.703125 0 
L 19.390625 60.984375 
L 19.390625 0 
L 9.8125 0 
z
" id="DejaVuSans-78"/>
      <path d="M 30.609375 48.390625 
Q 23.390625 48.390625 19.1875 42.75 
Q 14.984375 37.109375 14.984375 27.296875 
Q 14.984375 17.484375 19.15625 11.84375 
Q 23.34375 6.203125 30.609375 6.203125 
Q 37.796875 6.203125 41.984375 11.859375 
Q 46.1875 17.53125 46.1875 27.296875 
Q 46.1875 37.015625 41.984375 42.703125 
Q 37.796875 48.390625 30.609375 48.390625 
z
M 30.609375 56 
Q 42.328125 56 49.015625 48.375 
Q 55.71875 40.765625 55.71875 27.296875 
Q 55.71875 13.875 49.015625 6.21875 
Q 42.328125 -1.421875 30.609375 -1.421875 
Q 18.84375 -1.421875 12.171875 6.21875 
Q 5.515625 13.875 5.515625 27.296875 
Q 5.515625 40.765625 12.171875 48.375 
Q 18.84375 56 30.609375 56 
z
" id="DejaVuSans-111"/>
      <path d="M 18.3125 70.21875 
L 18.3125 54.6875 
L 36.8125 54.6875 
L 36.8125 47.703125 
L 18.3125 47.703125 
L 18.3125 18.015625 
Q 18.3125 11.328125 20.140625 9.421875 
Q 21.96875 7.515625 27.59375 7.515625 
L 36.8125 7.515625 
L 36.8125 0 
L 27.59375 0 
Q 17.1875 0 13.234375 3.875 
Q 9.28125 7.765625 9.28125 18.015625 
L 9.28125 47.703125 
L 2.6875 47.703125 
L 2.6875 54.6875 
L 9.28125 54.6875 
L 9.28125 70.21875 
z
" id="DejaVuSans-116"/>
      <path d="M 44.28125 53.078125 
L 44.28125 44.578125 
Q 40.484375 46.53125 36.375 47.5 
Q 32.28125 48.484375 27.875 48.484375 
Q 21.1875 48.484375 17.84375 46.4375 
Q 14.5 44.390625 14.5 40.28125 
Q 14.5 37.15625 16.890625 35.375 
Q 19.28125 33.59375 26.515625 31.984375 
L 29.59375 31.296875 
Q 39.15625 29.25 43.1875 25.515625 
Q 47.21875 21.78125 47.21875 15.09375 
Q 47.21875 7.46875 41.1875 3.015625 
Q 35.15625 -1.421875 24.609375 -1.421875 
Q 20.21875 -1.421875 15.453125 -0.5625 
Q 10.6875 0.296875 5.421875 2 
L 5.421875 11.28125 
Q 10.40625 8.6875 15.234375 7.390625 
Q 20.0625 6.109375 24.8125 6.109375 
Q 31.15625 6.109375 34.5625 8.28125 
Q 37.984375 10.453125 37.984375 14.40625 
Q 37.984375 18.0625 35.515625 20.015625 
Q 33.0625 21.96875 24.703125 23.78125 
L 21.578125 24.515625 
Q 13.234375 26.265625 9.515625 29.90625 
Q 5.8125 33.546875 5.8125 39.890625 
Q 5.8125 47.609375 11.28125 51.796875 
Q 16.75 56 26.8125 56 
Q 31.78125 56 36.171875 55.265625 
Q 40.578125 54.546875 44.28125 53.078125 
z
" id="DejaVuSans-115"/>
      <path d="M 45.40625 27.984375 
Q 45.40625 37.75 41.375 43.109375 
Q 37.359375 48.484375 30.078125 48.484375 
Q 22.859375 48.484375 18.828125 43.109375 
Q 14.796875 37.75 14.796875 27.984375 
Q 14.796875 18.265625 18.828125 12.890625 
Q 22.859375 7.515625 30.078125 7.515625 
Q 37.359375 7.515625 41.375 12.890625 
Q 45.40625 18.265625 45.40625 27.984375 
z
M 54.390625 6.78125 
Q 54.390625 -7.171875 48.1875 -13.984375 
Q 42 -20.796875 29.203125 -20.796875 
Q 24.46875 -20.796875 20.265625 -20.09375 
Q 16.0625 -19.390625 12.109375 -17.921875 
L 12.109375 -9.1875 
Q 16.0625 -11.328125 19.921875 -12.34375 
Q 23.78125 -13.375 27.78125 -13.375 
Q 36.625 -13.375 41.015625 -8.765625 
Q 45.40625 -4.15625 45.40625 5.171875 
L 45.40625 9.625 
Q 42.625 4.78125 38.28125 2.390625 
Q 33.9375 0 27.875 0 
Q 17.828125 0 11.671875 7.65625 
Q 5.515625 15.328125 5.515625 27.984375 
Q 5.515625 40.671875 11.671875 48.328125 
Q 17.828125 56 27.875 56 
Q 33.9375 56 38.28125 53.609375 
Q 42.625 51.21875 45.40625 46.390625 
L 45.40625 54.6875 
L 54.390625 54.6875 
z
" id="DejaVuSans-103"/>
      <path d="M 37.109375 75.984375 
L 37.109375 68.5 
L 28.515625 68.5 
Q 23.6875 68.5 21.796875 66.546875 
Q 19.921875 64.59375 19.921875 59.515625 
L 19.921875 54.6875 
L 34.71875 54.6875 
L 34.71875 47.703125 
L 19.921875 47.703125 
L 19.921875 0 
L 10.890625 0 
L 10.890625 47.703125 
L 2.296875 47.703125 
L 2.296875 54.6875 
L 10.890625 54.6875 
L 10.890625 58.5 
Q 10.890625 67.625 15.140625 71.796875 
Q 19.390625 75.984375 28.609375 75.984375 
z
" id="DejaVuSans-102"/>
      <path d="M 34.28125 27.484375 
Q 23.390625 27.484375 19.1875 25 
Q 14.984375 22.515625 14.984375 16.5 
Q 14.984375 11.71875 18.140625 8.90625 
Q 21.296875 6.109375 26.703125 6.109375 
Q 34.1875 6.109375 38.703125 11.40625 
Q 43.21875 16.703125 43.21875 25.484375 
L 43.21875 27.484375 
z
M 52.203125 31.203125 
L 52.203125 0 
L 43.21875 0 
L 43.21875 8.296875 
Q 40.140625 3.328125 35.546875 0.953125 
Q 30.953125 -1.421875 24.3125 -1.421875 
Q 15.921875 -1.421875 10.953125 3.296875 
Q 6 8.015625 6 15.921875 
Q 6 25.140625 12.171875 29.828125 
Q 18.359375 34.515625 30.609375 34.515625 
L 43.21875 34.515625 
L 43.21875 35.40625 
Q 43.21875 41.609375 39.140625 45 
Q 35.0625 48.390625 27.6875 48.390625 
Q 23 48.390625 18.546875 47.265625 
Q 14.109375 46.140625 10.015625 43.890625 
L 10.015625 52.203125 
Q 14.9375 54.109375 19.578125 55.046875 
Q 24.21875 56 28.609375 56 
Q 40.484375 56 46.34375 49.84375 
Q 52.203125 43.703125 52.203125 31.203125 
z
" id="DejaVuSans-97"/>
     </defs>
     <g transform="translate(66.24 54.105938)scale(0.06 -0.06)">
      <use xlink:href="#DejaVuSans-78"/>
      <use x="74.804688" xlink:href="#DejaVuSans-111"/>
      <use x="135.986328" xlink:href="#DejaVuSans-116"/>
      <use x="175.195312" xlink:href="#DejaVuSans-32"/>
      <use x="206.982422" xlink:href="#DejaVuSans-115"/>
      <use x="259.082031" xlink:href="#DejaVuSans-105"/>
      <use x="286.865234" xlink:href="#DejaVuSans-103"/>
      <use x="350.341797" xlink:href="#DejaVuSans-110"/>
      <use x="413.720703" xlink:href="#DejaVuSans-105"/>
      <use x="441.503906" xlink:href="#DejaVuSans-102"/>
      <use x="476.708984" xlink:href="#DejaVuSans-105"/>
      <use x="504.492188" xlink:href="#DejaVuSans-99"/>
      <use x="559.472656" xlink:href="#DejaVuSans-97"/>
      <use x="620.751953" xlink:href="#DejaVuSans-110"/>
      <use x="684.130859" xlink:href="#DejaVuSans-116"/>
     </g>
    </g>
   </g>
   <g id="legend_2">
    <g id="patch_8">
     <path d="M 247.520625 241.8 
L 272.28 241.8 
Q 273.48 241.8 273.48 240.6 
L 273.48 214.779375 
Q 273.48 213.579375 272.28 213.579375 
L 247.520625 213.579375 
Q 246.320625 213.579375 246.320625 214.779375 
L 246.320625 240.6 
Q 246.320625 241.8 247.520625 241.8 
z
" style="fill:#ffffff;opacity:0.8;stroke:#cccccc;stroke-linejoin:miter;"/>
    </g>
    <g id="PathCollection_11">
     <g>
      <use style="stroke:#000000;" x="250.220625" xlink:href="#m3ae0140610" y="218.963437"/>
     </g>
    </g>
    <g id="text_26">
     <!-- 0.05 -->
     <defs>
      <path d="M 10.6875 12.40625 
L 21 12.40625 
L 21 0 
L 10.6875 0 
z
" id="DejaVuSans-46"/>
     </defs>
     <g transform="translate(257.720625 220.538437)scale(0.06 -0.06)">
      <use xlink:href="#DejaVuSans-48"/>
      <use x="63.623047" xlink:href="#DejaVuSans-46"/>
      <use x="95.410156" xlink:href="#DejaVuSans-48"/>
      <use x="159.033203" xlink:href="#DejaVuSans-53"/>
     </g>
    </g>
    <g id="PathCollection_12">
     <defs>
      <path d="M 0 2.561738 
C 0.679381 2.561738 1.331027 2.291817 1.811422 1.811422 
C 2.291817 1.331027 2.561738 0.679381 2.561738 0 
C 2.561738 -0.679381 2.291817 -1.331027 1.811422 -1.811422 
C 1.331027 -2.291817 0.679381 -2.561738 0 -2.561738 
C -0.679381 -2.561738 -1.331027 -2.291817 -1.811422 -1.811422 
C -2.291817 -1.331027 -2.561738 -0.679381 -2.561738 0 
C -2.561738 0.679381 -2.291817 1.331027 -1.811422 1.811422 
C -1.331027 2.291817 -0.679381 2.561738 0 2.561738 
z
" id="md3c19c0711" style="stroke:#000000;"/>
     </defs>
     <g>
      <use style="stroke:#000000;" x="250.220625" xlink:href="#md3c19c0711" y="227.770312"/>
     </g>
    </g>
    <g id="text_27">
     <!-- 0.10 -->
     <g transform="translate(257.720625 229.345312)scale(0.06 -0.06)">
      <use xlink:href="#DejaVuSans-48"/>
      <use x="63.623047" xlink:href="#DejaVuSans-46"/>
      <use x="95.410156" xlink:href="#DejaVuSans-49"/>
      <use x="159.033203" xlink:href="#DejaVuSans-48"/>
     </g>
    </g>
    <g id="PathCollection_13">
     <defs>
      <path d="M 0 1.280869 
C 0.33969 1.280869 0.665514 1.145908 0.905711 0.905711 
C 1.145908 0.665514 1.280869 0.33969 1.280869 0 
C 1.280869 -0.33969 1.145908 -0.665514 0.905711 -0.905711 
C 0.665514 -1.145908 0.33969 -1.280869 0 -1.280869 
C -0.33969 -1.280869 -0.665514 -1.145908 -0.905711 -0.905711 
C -1.145908 -0.665514 -1.280869 -0.33969 -1.280869 0 
C -1.280869 0.33969 -1.145908 0.665514 -0.905711 0.905711 
C -0.665514 1.145908 -0.33969 1.280869 0 1.280869 
z
" id="m4ee1cc655d" style="stroke:#000000;"/>
     </defs>
     <g>
      <use style="stroke:#000000;" x="250.220625" xlink:href="#m4ee1cc655d" y="236.577187"/>
     </g>
    </g>
    <g id="text_28">
     <!-- 0.40 -->
     <g transform="translate(257.720625 238.152187)scale(0.06 -0.06)">
      <use xlink:href="#DejaVuSans-48"/>
      <use x="63.623047" xlink:href="#DejaVuSans-46"/>
      <use x="95.410156" xlink:href="#DejaVuSans-52"/>
      <use x="159.033203" xlink:href="#DejaVuSans-48"/>
     </g>
    </g>
   </g>
  </g>
 </g>
 <defs>
  <clipPath id="pba148ef8be">
   <rect height="218.88" width="224.64" x="51.84" y="25.92"/>
  </clipPath>
 </defs>
</svg>
